<svg id="visual" viewBox="0 0 -900 800" width="2000" height="800" xmlns="http://www.w3.org/2000/svg" xmlns:xlink="http://www.w3.org/1999/xlink" version="1.1"><rect x="0" y="0" width="2000" height="800" fill="#1A202C"></rect><defs><linearGradient id="grad1_0" x1="60%" y1="0%" x2="100%" y2="100%"><stop offset="0%" stop-color="#1a202c" stop-opacity="1"></stop><stop offset="100%" stop-color="#1a202c" stop-opacity="1"></stop></linearGradient></defs><defs><linearGradient id="grad2_0" x1="0%" y1="0%" x2="40%" y2="100%"><stop offset="0%" stop-color="#1a202c" stop-opacity="1"></stop><stop offset="100%" stop-color="#1a202c" stop-opacity="1"></stop></linearGradient></defs><g transform="translate(2000, 0)"><path d="M0 419C-25.1 419.2 -50.1 419.3 -86.8 436.4C-123.5 453.6 -171.8 487.7 -195.6 472.1C-219.3 456.5 -218.5 391.2 -251.1 375.8C-283.7 360.4 -349.7 394.9 -386.1 386.1C-422.4 377.2 -429.1 325.1 -414.9 277.2C-400.7 229.4 -365.6 185.9 -388 160.7C-410.5 135.6 -490.4 128.9 -528.6 105.2C-566.9 81.4 -563.4 40.7 -560 0L0 0Z" fill="#2de000"></path></g><g transform="translate(0, 800)"><path d="M0 -522C42.7 -545.3 85.3 -568.5 105.3 -529.6C125.4 -490.7 122.8 -389.7 155 -374.2C187.2 -358.6 254.2 -428.6 292.2 -437.4C330.3 -446.1 339.4 -393.8 356.4 -356.4C373.4 -319 398.4 -296.6 394.9 -263.9C391.5 -231.2 359.7 -188.2 395.4 -163.8C431.1 -139.4 534.2 -133.5 549.2 -109.3C564.2 -85 491.1 -42.5 418 0L0 0Z" fill="#2de000"></path></g></svg>
