<svg xmlns="http://www.w3.org/2000/svg" xmlns:xlink="http://www.w3.org/1999/xlink" width="2000" height="800" preserveAspectRatio="none"><g mask="url(&quot;#a&quot;)" fill="rgba(0, 0, 0, 1)"><use xlink:href="#b"/><use xlink:href="#b" transform="translate(0 624)"/><use xlink:href="#b" transform="translate(624)"/><use xlink:href="#b" transform="translate(624 624)"/><use xlink:href="#b" transform="translate(1248)"/><use xlink:href="#b" transform="translate(1248 624)"/><use xlink:href="#b" transform="translate(1872)"/><use xlink:href="#b" transform="translate(1872 624)"/></g><defs><g id="c"><path d="M5.68 12.07s-.37-1.82-2.83-2.87C.59 8.24-.86 8.4-.86 8.4L3-.71s1.45-.16 3.72.79c2.47 1.03 2.82 2.88 2.82 2.88l-3.86 9.11zm1 .42s1.56-1 4.02.05c2.26.96 3.15 2.11 3.15 2.11l3.87-9.11s-.89-1.15-3.14-2.13c-2.46-1.06-4.03-.03-4.04-.03l-3.86 9.11z"/><path d="M4.99 15.12s-.58-2.76-3.04-3.81c-2.26-.96-3.71-.8-3.71-.8l.47-1.09s1.45-.16 3.71.78c2.47 1.03 3.03 3.83 3.03 3.83l-.46 1.09zm0 0s2.39-1.51 4.85-.46c2.26.96 3.15 2.11 3.15 2.11l.47-1.09s-.89-1.15-3.15-2.13c-2.45-1.06-4.86.48-4.86.48l-.46 1.09z"/></g><g id="b" fill="rgba(0, 0, 0, 1)"><use xlink:href="#c" transform="scale(1.6)"/><use xlink:href="#c" transform="matrix(1.6 0 0 1.6 0 62.4)"/><use xlink:href="#d" transform="matrix(1.6 0 0 1.6 0 124.8)"/><use xlink:href="#c" transform="matrix(1.6 0 0 1.6 0 187.2)"/><use xlink:href="#d" transform="matrix(1.6 0 0 1.6 0 249.6)"/><use xlink:href="#c" transform="matrix(1.6 0 0 1.6 0 312)"/><use xlink:href="#c" transform="matrix(1.6 0 0 1.6 0 374.4)"/><use xlink:href="#d" transform="matrix(1.6 0 0 1.6 0 436.8)"/><use xlink:href="#d" transform="matrix(1.6 0 0 1.6 0 499.2)"/><use xlink:href="#d" transform="matrix(1.6 0 0 1.6 0 561.6)"/><use xlink:href="#d" transform="translate(62.4) scale(1.6)"/><use xlink:href="#d" transform="matrix(1.6 0 0 1.6 62.4 62.4)"/><use xlink:href="#d" transform="matrix(1.6 0 0 1.6 62.4 124.8)"/><use xlink:href="#d" transform="matrix(1.6 0 0 1.6 62.4 187.2)"/><use xlink:href="#c" transform="matrix(1.6 0 0 1.6 62.4 249.6)"/><use xlink:href="#d" transform="matrix(1.6 0 0 1.6 62.4 312)"/><use xlink:href="#d" transform="matrix(1.6 0 0 1.6 62.4 374.4)"/><use xlink:href="#c" transform="matrix(1.6 0 0 1.6 62.4 436.8)"/><use xlink:href="#d" transform="matrix(1.6 0 0 1.6 62.4 499.2)"/><use xlink:href="#d" transform="matrix(1.6 0 0 1.6 62.4 561.6)"/><use xlink:href="#d" transform="translate(124.8) scale(1.6)"/><use xlink:href="#d" transform="matrix(1.6 0 0 1.6 124.8 62.4)"/><use xlink:href="#d" transform="matrix(1.6 0 0 1.6 124.8 124.8)"/><use xlink:href="#c" transform="matrix(1.6 0 0 1.6 124.8 187.2)"/><use xlink:href="#c" transform="matrix(1.6 0 0 1.6 124.8 249.6)"/><use xlink:href="#d" transform="matrix(1.6 0 0 1.6 124.8 312)"/><use xlink:href="#d" transform="matrix(1.6 0 0 1.6 124.8 374.4)"/><use xlink:href="#d" transform="matrix(1.6 0 0 1.6 124.8 436.8)"/><use xlink:href="#d" transform="matrix(1.6 0 0 1.6 124.8 499.2)"/><use xlink:href="#d" transform="matrix(1.6 0 0 1.6 124.8 561.6)"/><use xlink:href="#d" transform="translate(187.2) scale(1.6)"/><use xlink:href="#d" transform="matrix(1.6 0 0 1.6 187.2 62.4)"/><use xlink:href="#d" transform="matrix(1.6 0 0 1.6 187.2 124.8)"/><use xlink:href="#d" transform="matrix(1.6 0 0 1.6 187.2 187.2)"/><use xlink:href="#d" transform="matrix(1.6 0 0 1.6 187.2 249.6)"/><use xlink:href="#c" transform="matrix(1.6 0 0 1.6 187.2 312)"/><use xlink:href="#c" transform="matrix(1.6 0 0 1.6 187.2 374.4)"/><use xlink:href="#d" transform="matrix(1.6 0 0 1.6 187.2 436.8)"/><use xlink:href="#d" transform="matrix(1.6 0 0 1.6 187.2 499.2)"/><use xlink:href="#c" transform="matrix(1.6 0 0 1.6 187.2 561.6)"/><use xlink:href="#d" transform="translate(249.6) scale(1.6)"/><use xlink:href="#d" transform="matrix(1.6 0 0 1.6 249.6 62.4)"/><use xlink:href="#c" transform="matrix(1.6 0 0 1.6 249.6 124.8)"/><use xlink:href="#c" transform="matrix(1.6 0 0 1.6 249.6 187.2)"/><use xlink:href="#c" transform="matrix(1.6 0 0 1.6 249.6 249.6)"/><use xlink:href="#d" transform="matrix(1.6 0 0 1.6 249.6 312)"/><use xlink:href="#c" transform="matrix(1.6 0 0 1.6 249.6 374.4)"/><use xlink:href="#c" transform="matrix(1.6 0 0 1.6 249.6 436.8)"/><use xlink:href="#c" transform="matrix(1.6 0 0 1.6 249.6 499.2)"/><use xlink:href="#c" transform="matrix(1.6 0 0 1.6 249.6 561.6)"/><use xlink:href="#c" transform="translate(312) scale(1.6)"/><use xlink:href="#c" transform="matrix(1.6 0 0 1.6 312 62.4)"/><use xlink:href="#c" transform="matrix(1.6 0 0 1.6 312 124.8)"/><use xlink:href="#c" transform="matrix(1.6 0 0 1.6 312 187.2)"/><use xlink:href="#d" transform="matrix(1.6 0 0 1.6 312 249.6)"/><use xlink:href="#d" transform="matrix(1.6 0 0 1.6 312 312)"/><use xlink:href="#d" transform="matrix(1.6 0 0 1.6 312 374.4)"/><use xlink:href="#c" transform="matrix(1.6 0 0 1.6 312 436.8)"/><use xlink:href="#d" transform="matrix(1.6 0 0 1.6 312 499.2)"/><use xlink:href="#d" transform="matrix(1.6 0 0 1.6 312 561.6)"/><use xlink:href="#c" transform="translate(374.4) scale(1.6)"/><use xlink:href="#d" transform="matrix(1.6 0 0 1.6 374.4 62.4)"/><use xlink:href="#d" transform="matrix(1.6 0 0 1.6 374.4 124.8)"/><use xlink:href="#d" transform="matrix(1.6 0 0 1.6 374.4 187.2)"/><use xlink:href="#c" transform="matrix(1.6 0 0 1.6 374.4 249.6)"/><use xlink:href="#d" transform="matrix(1.6 0 0 1.6 374.4 312)"/><use xlink:href="#c" transform="matrix(1.6 0 0 1.6 374.4 374.4)"/><use xlink:href="#d" transform="matrix(1.6 0 0 1.6 374.4 436.8)"/><use xlink:href="#d" transform="matrix(1.6 0 0 1.6 374.4 499.2)"/><use xlink:href="#d" transform="matrix(1.6 0 0 1.6 374.4 561.6)"/><use xlink:href="#c" transform="translate(436.8) scale(1.6)"/><use xlink:href="#c" transform="matrix(1.6 0 0 1.6 436.8 62.4)"/><use xlink:href="#d" transform="matrix(1.6 0 0 1.6 436.8 124.8)"/><use xlink:href="#d" transform="matrix(1.6 0 0 1.6 436.8 187.2)"/><use xlink:href="#c" transform="matrix(1.6 0 0 1.6 436.8 249.6)"/><use xlink:href="#d" transform="matrix(1.6 0 0 1.6 436.8 312)"/><use xlink:href="#d" transform="matrix(1.6 0 0 1.6 436.8 374.4)"/><use xlink:href="#d" transform="matrix(1.6 0 0 1.6 436.8 436.8)"/><use xlink:href="#d" transform="matrix(1.6 0 0 1.6 436.8 499.2)"/><use xlink:href="#c" transform="matrix(1.6 0 0 1.6 436.8 561.6)"/><use xlink:href="#c" transform="translate(499.2) scale(1.6)"/><use xlink:href="#c" transform="matrix(1.6 0 0 1.6 499.2 62.4)"/><use xlink:href="#c" transform="matrix(1.6 0 0 1.6 499.2 124.8)"/><use xlink:href="#d" transform="matrix(1.6 0 0 1.6 499.2 187.2)"/><use xlink:href="#d" transform="matrix(1.6 0 0 1.6 499.2 249.6)"/><use xlink:href="#c" transform="matrix(1.6 0 0 1.6 499.2 312)"/><use xlink:href="#c" transform="matrix(1.6 0 0 1.6 499.2 374.4)"/><use xlink:href="#d" transform="matrix(1.6 0 0 1.6 499.2 436.8)"/><use xlink:href="#d" transform="matrix(1.6 0 0 1.6 499.2 499.2)"/><use xlink:href="#c" transform="matrix(1.6 0 0 1.6 499.2 561.6)"/><use xlink:href="#d" transform="translate(561.6) scale(1.6)"/><use xlink:href="#d" transform="matrix(1.6 0 0 1.6 561.6 62.4)"/><use xlink:href="#d" transform="matrix(1.6 0 0 1.6 561.6 124.8)"/><use xlink:href="#c" transform="matrix(1.6 0 0 1.6 561.6 187.2)"/><use xlink:href="#c" transform="matrix(1.6 0 0 1.6 561.6 249.6)"/><use xlink:href="#c" transform="matrix(1.6 0 0 1.6 561.6 312)"/><use xlink:href="#c" transform="matrix(1.6 0 0 1.6 561.6 374.4)"/><use xlink:href="#d" transform="matrix(1.6 0 0 1.6 561.6 436.8)"/><use xlink:href="#d" transform="matrix(1.6 0 0 1.6 561.6 499.2)"/><use xlink:href="#d" transform="matrix(1.6 0 0 1.6 561.6 561.6)"/></g><path d="m8.94 15.95-.22-.09c-.07-.2-.04-.41.1-.63.23-.35.63-.55.78-.54v-.01a.53.53 0 0 0 .51-.31l4.22-9.92a.533.533 0 0 0-.27-.69s-1.98-.84-2.53-1.08l.47-1.1c.08-.2.04-.42-.1-.57a.52.52 0 0 0-.56-.12L6.6 2.81c-.83.34-1.76 1.25-2.12 2.09l-2.97 6.93c-.41.97.03 2.1.99 2.5l6.03 2.59c.26.11.57-.01.68-.28a.533.533 0 0 0-.27-.69m4.23-11.42c-.35.83-3.46 8.12-3.82 8.95l-5.44-2.31 4.64-1.44 2.57-6.08c.31.13 1.76.75 2.05.88m-10.71 7.7s.17-.4.2-.45l5.7 2.41c-.16.14-.3.3-.41.48-.15.24-.23.49-.28.74l-4.76-2.04a.862.862 0 0 1-.45-1.14" id="d"/><mask id="a"><path fill="#fff" d="M0 0h2000v800H0z"/></mask></defs></svg>