<svg xmlns="http://www.w3.org/2000/svg" version="1.1" xmlns:xlink="http://www.w3.org/1999/xlink" xmlns:svgjs="http://svgjs.com/svgjs" width="2000" height="800" preserveAspectRatio="none" viewBox="0 0 2000 800">
    <g mask="url(&quot;#SvgjsMask1669&quot;)" fill="none">
        <use xlink:href="#SvgjsG1672" transform="translate(0, 0)" fill="rgba(0, 0, 0, 1)"></use>
        <use xlink:href="#SvgjsG1672" transform="translate(0, 624)" fill="rgba(0, 0, 0, 1)"></use>
        <use xlink:href="#SvgjsG1672" transform="translate(624, 0)" fill="rgba(0, 0, 0, 1)"></use>
        <use xlink:href="#SvgjsG1672" transform="translate(624, 624)" fill="rgba(0, 0, 0, 1)"></use>
        <use xlink:href="#SvgjsG1672" transform="translate(1248, 0)" fill="rgba(0, 0, 0, 1)"></use>
        <use xlink:href="#SvgjsG1672" transform="translate(1248, 624)" fill="rgba(0, 0, 0, 1)"></use>
        <use xlink:href="#SvgjsG1672" transform="translate(1872, 0)" fill="rgba(0, 0, 0, 1)"></use>
        <use xlink:href="#SvgjsG1672" transform="translate(1872, 624)" fill="rgba(0, 0, 0, 1)"></use>
    </g>
    <defs>
        <mask id="SvgjsMask1669">
            <rect width="2000" height="800" fill="#ffffff"></rect>
        </mask>
        <g id="SvgjsG1671">
            <path d="M8.94 15.95l-0.22-0.09c-0.07-0.2-0.04-0.41 0.1-0.63 0.23-0.35 0.63-0.55 0.78-0.54l0-0.01a0.53 0.53 0 0 0 0.51-0.31l4.22-9.92c0.11-0.27-0.01-0.57-0.27-0.69 0 0-1.98-0.84-2.53-1.08l0.47-1.1c0.08-0.2 0.04-0.42-0.1-0.57a0.52 0.52 0 0 0-0.56-0.12L6.6 2.81C5.77 3.15 4.84 4.06 4.48 4.9L1.51 11.83c-0.41 0.97 0.03 2.1 0.99 2.5l6.03 2.59c0.26 0.11 0.57-0.01 0.68-0.28l0 0c0.11-0.27-0.01-0.57-0.27-0.69M13.17 4.53c-0.35 0.83-3.46 8.12-3.82 8.95l-5.44-2.31 4.64-1.44 2.57-6.08c0.31 0.13 1.76 0.75 2.05 0.88M2.46 12.23s0.17-0.4 0.2-0.45L8.36 14.19c-0.16 0.14-0.3 0.3-0.41 0.48-0.15 0.24-0.23 0.49-0.28 0.74l-4.76-2.04c-0.44-0.19-0.64-0.69-0.45-1.14"></path>
        </g>
        <g id="SvgjsG1670">
            <path d="M5.68 12.07S5.31 10.25 2.85 9.2C0.59 8.24-0.86 8.4-0.86 8.4L3-0.71s1.45-0.16 3.72 0.79C9.19 1.11 9.54 2.96 9.54 2.96L5.68 12.07z m1 0.42s1.56-1 4.02 0.05c2.26 0.96 3.15 2.11 3.15 2.11L17.72 5.54s-0.89-1.15-3.14-2.13c-2.46-1.06-4.03-0.03-4.04-0.03l-3.86 9.11z"></path>
            <path d="M4.99 15.12S4.41 12.36 1.95 11.31c-2.26-0.96-3.71-0.8-3.71-0.8l0.47-1.09s1.45-0.16 3.71 0.78c2.47 1.03 3.03 3.83 3.03 3.83L4.99 15.12z m0 0s2.39-1.51 4.85-0.46c2.26 0.96 3.15 2.11 3.15 2.11l0.47-1.09s-0.89-1.15-3.15-2.13c-2.45-1.06-4.86 0.48-4.86 0.48l-0.46 1.09z"></path>
        </g>
        <g id="SvgjsG1672">
            <use xlink:href="#SvgjsG1670" transform="translate(0, 0) scale(1.6)" fill="rgba(0, 0, 0, 1)"></use>
            <use xlink:href="#SvgjsG1670" transform="translate(0, 62.400000000000006) scale(1.6)" fill="rgba(0, 0, 0, 1)"></use>
            <use xlink:href="#SvgjsG1671" transform="translate(0, 124.80000000000001) scale(1.6)" fill="rgba(0, 0, 0, 1)"></use>
            <use xlink:href="#SvgjsG1670" transform="translate(0, 187.20000000000002) scale(1.6)" fill="rgba(0, 0, 0, 1)"></use>
            <use xlink:href="#SvgjsG1671" transform="translate(0, 249.60000000000002) scale(1.6)" fill="rgba(0, 0, 0, 1)"></use>
            <use xlink:href="#SvgjsG1670" transform="translate(0, 312) scale(1.6)" fill="rgba(0, 0, 0, 1)"></use>
            <use xlink:href="#SvgjsG1670" transform="translate(0, 374.40000000000003) scale(1.6)" fill="rgba(0, 0, 0, 1)"></use>
            <use xlink:href="#SvgjsG1671" transform="translate(0, 436.80000000000007) scale(1.6)" fill="rgba(0, 0, 0, 1)"></use>
            <use xlink:href="#SvgjsG1671" transform="translate(0, 499.20000000000005) scale(1.6)" fill="rgba(0, 0, 0, 1)"></use>
            <use xlink:href="#SvgjsG1671" transform="translate(0, 561.6) scale(1.6)" fill="rgba(0, 0, 0, 1)"></use>
            <use xlink:href="#SvgjsG1671" transform="translate(62.400000000000006, 0) scale(1.6)" fill="rgba(0, 0, 0, 1)"></use>
            <use xlink:href="#SvgjsG1671" transform="translate(62.400000000000006, 62.400000000000006) scale(1.6)" fill="rgba(0, 0, 0, 1)"></use>
            <use xlink:href="#SvgjsG1671" transform="translate(62.400000000000006, 124.80000000000001) scale(1.6)" fill="rgba(0, 0, 0, 1)"></use>
            <use xlink:href="#SvgjsG1671" transform="translate(62.400000000000006, 187.20000000000002) scale(1.6)" fill="rgba(0, 0, 0, 1)"></use>
            <use xlink:href="#SvgjsG1670" transform="translate(62.400000000000006, 249.60000000000002) scale(1.6)" fill="rgba(0, 0, 0, 1)"></use>
            <use xlink:href="#SvgjsG1671" transform="translate(62.400000000000006, 312) scale(1.6)" fill="rgba(0, 0, 0, 1)"></use>
            <use xlink:href="#SvgjsG1671" transform="translate(62.400000000000006, 374.40000000000003) scale(1.6)" fill="rgba(0, 0, 0, 1)"></use>
            <use xlink:href="#SvgjsG1670" transform="translate(62.400000000000006, 436.80000000000007) scale(1.6)" fill="rgba(0, 0, 0, 1)"></use>
            <use xlink:href="#SvgjsG1671" transform="translate(62.400000000000006, 499.20000000000005) scale(1.6)" fill="rgba(0, 0, 0, 1)"></use>
            <use xlink:href="#SvgjsG1671" transform="translate(62.400000000000006, 561.6) scale(1.6)" fill="rgba(0, 0, 0, 1)"></use>
            <use xlink:href="#SvgjsG1671" transform="translate(124.80000000000001, 0) scale(1.6)" fill="rgba(0, 0, 0, 1)"></use>
            <use xlink:href="#SvgjsG1671" transform="translate(124.80000000000001, 62.400000000000006) scale(1.6)" fill="rgba(0, 0, 0, 1)"></use>
            <use xlink:href="#SvgjsG1671" transform="translate(124.80000000000001, 124.80000000000001) scale(1.6)" fill="rgba(0, 0, 0, 1)"></use>
            <use xlink:href="#SvgjsG1670" transform="translate(124.80000000000001, 187.20000000000002) scale(1.6)" fill="rgba(0, 0, 0, 1)"></use>
            <use xlink:href="#SvgjsG1670" transform="translate(124.80000000000001, 249.60000000000002) scale(1.6)" fill="rgba(0, 0, 0, 1)"></use>
            <use xlink:href="#SvgjsG1671" transform="translate(124.80000000000001, 312) scale(1.6)" fill="rgba(0, 0, 0, 1)"></use>
            <use xlink:href="#SvgjsG1671" transform="translate(124.80000000000001, 374.40000000000003) scale(1.6)" fill="rgba(0, 0, 0, 1)"></use>
            <use xlink:href="#SvgjsG1671" transform="translate(124.80000000000001, 436.80000000000007) scale(1.6)" fill="rgba(0, 0, 0, 1)"></use>
            <use xlink:href="#SvgjsG1671" transform="translate(124.80000000000001, 499.20000000000005) scale(1.6)" fill="rgba(0, 0, 0, 1)"></use>
            <use xlink:href="#SvgjsG1671" transform="translate(124.80000000000001, 561.6) scale(1.6)" fill="rgba(0, 0, 0, 1)"></use>
            <use xlink:href="#SvgjsG1671" transform="translate(187.20000000000002, 0) scale(1.6)" fill="rgba(0, 0, 0, 1)"></use>
            <use xlink:href="#SvgjsG1671" transform="translate(187.20000000000002, 62.400000000000006) scale(1.6)" fill="rgba(0, 0, 0, 1)"></use>
            <use xlink:href="#SvgjsG1671" transform="translate(187.20000000000002, 124.80000000000001) scale(1.6)" fill="rgba(0, 0, 0, 1)"></use>
            <use xlink:href="#SvgjsG1671" transform="translate(187.20000000000002, 187.20000000000002) scale(1.6)" fill="rgba(0, 0, 0, 1)"></use>
            <use xlink:href="#SvgjsG1671" transform="translate(187.20000000000002, 249.60000000000002) scale(1.6)" fill="rgba(0, 0, 0, 1)"></use>
            <use xlink:href="#SvgjsG1670" transform="translate(187.20000000000002, 312) scale(1.6)" fill="rgba(0, 0, 0, 1)"></use>
            <use xlink:href="#SvgjsG1670" transform="translate(187.20000000000002, 374.40000000000003) scale(1.6)" fill="rgba(0, 0, 0, 1)"></use>
            <use xlink:href="#SvgjsG1671" transform="translate(187.20000000000002, 436.80000000000007) scale(1.6)" fill="rgba(0, 0, 0, 1)"></use>
            <use xlink:href="#SvgjsG1671" transform="translate(187.20000000000002, 499.20000000000005) scale(1.6)" fill="rgba(0, 0, 0, 1)"></use>
            <use xlink:href="#SvgjsG1670" transform="translate(187.20000000000002, 561.6) scale(1.6)" fill="rgba(0, 0, 0, 1)"></use>
            <use xlink:href="#SvgjsG1671" transform="translate(249.60000000000002, 0) scale(1.6)" fill="rgba(0, 0, 0, 1)"></use>
            <use xlink:href="#SvgjsG1671" transform="translate(249.60000000000002, 62.400000000000006) scale(1.6)" fill="rgba(0, 0, 0, 1)"></use>
            <use xlink:href="#SvgjsG1670" transform="translate(249.60000000000002, 124.80000000000001) scale(1.6)" fill="rgba(0, 0, 0, 1)"></use>
            <use xlink:href="#SvgjsG1670" transform="translate(249.60000000000002, 187.20000000000002) scale(1.6)" fill="rgba(0, 0, 0, 1)"></use>
            <use xlink:href="#SvgjsG1670" transform="translate(249.60000000000002, 249.60000000000002) scale(1.6)" fill="rgba(0, 0, 0, 1)"></use>
            <use xlink:href="#SvgjsG1671" transform="translate(249.60000000000002, 312) scale(1.6)" fill="rgba(0, 0, 0, 1)"></use>
            <use xlink:href="#SvgjsG1670" transform="translate(249.60000000000002, 374.40000000000003) scale(1.6)" fill="rgba(0, 0, 0, 1)"></use>
            <use xlink:href="#SvgjsG1670" transform="translate(249.60000000000002, 436.80000000000007) scale(1.6)" fill="rgba(0, 0, 0, 1)"></use>
            <use xlink:href="#SvgjsG1670" transform="translate(249.60000000000002, 499.20000000000005) scale(1.6)" fill="rgba(0, 0, 0, 1)"></use>
            <use xlink:href="#SvgjsG1670" transform="translate(249.60000000000002, 561.6) scale(1.6)" fill="rgba(0, 0, 0, 1)"></use>
            <use xlink:href="#SvgjsG1670" transform="translate(312, 0) scale(1.6)" fill="rgba(0, 0, 0, 1)"></use>
            <use xlink:href="#SvgjsG1670" transform="translate(312, 62.400000000000006) scale(1.6)" fill="rgba(0, 0, 0, 1)"></use>
            <use xlink:href="#SvgjsG1670" transform="translate(312, 124.80000000000001) scale(1.6)" fill="rgba(0, 0, 0, 1)"></use>
            <use xlink:href="#SvgjsG1670" transform="translate(312, 187.20000000000002) scale(1.6)" fill="rgba(0, 0, 0, 1)"></use>
            <use xlink:href="#SvgjsG1671" transform="translate(312, 249.60000000000002) scale(1.6)" fill="rgba(0, 0, 0, 1)"></use>
            <use xlink:href="#SvgjsG1671" transform="translate(312, 312) scale(1.6)" fill="rgba(0, 0, 0, 1)"></use>
            <use xlink:href="#SvgjsG1671" transform="translate(312, 374.40000000000003) scale(1.6)" fill="rgba(0, 0, 0, 1)"></use>
            <use xlink:href="#SvgjsG1670" transform="translate(312, 436.80000000000007) scale(1.6)" fill="rgba(0, 0, 0, 1)"></use>
            <use xlink:href="#SvgjsG1671" transform="translate(312, 499.20000000000005) scale(1.6)" fill="rgba(0, 0, 0, 1)"></use>
            <use xlink:href="#SvgjsG1671" transform="translate(312, 561.6) scale(1.6)" fill="rgba(0, 0, 0, 1)"></use>
            <use xlink:href="#SvgjsG1670" transform="translate(374.40000000000003, 0) scale(1.6)" fill="rgba(0, 0, 0, 1)"></use>
            <use xlink:href="#SvgjsG1671" transform="translate(374.40000000000003, 62.400000000000006) scale(1.6)" fill="rgba(0, 0, 0, 1)"></use>
            <use xlink:href="#SvgjsG1671" transform="translate(374.40000000000003, 124.80000000000001) scale(1.6)" fill="rgba(0, 0, 0, 1)"></use>
            <use xlink:href="#SvgjsG1671" transform="translate(374.40000000000003, 187.20000000000002) scale(1.6)" fill="rgba(0, 0, 0, 1)"></use>
            <use xlink:href="#SvgjsG1670" transform="translate(374.40000000000003, 249.60000000000002) scale(1.6)" fill="rgba(0, 0, 0, 1)"></use>
            <use xlink:href="#SvgjsG1671" transform="translate(374.40000000000003, 312) scale(1.6)" fill="rgba(0, 0, 0, 1)"></use>
            <use xlink:href="#SvgjsG1670" transform="translate(374.40000000000003, 374.40000000000003) scale(1.6)" fill="rgba(0, 0, 0, 1)"></use>
            <use xlink:href="#SvgjsG1671" transform="translate(374.40000000000003, 436.80000000000007) scale(1.6)" fill="rgba(0, 0, 0, 1)"></use>
            <use xlink:href="#SvgjsG1671" transform="translate(374.40000000000003, 499.20000000000005) scale(1.6)" fill="rgba(0, 0, 0, 1)"></use>
            <use xlink:href="#SvgjsG1671" transform="translate(374.40000000000003, 561.6) scale(1.6)" fill="rgba(0, 0, 0, 1)"></use>
            <use xlink:href="#SvgjsG1670" transform="translate(436.80000000000007, 0) scale(1.6)" fill="rgba(0, 0, 0, 1)"></use>
            <use xlink:href="#SvgjsG1670" transform="translate(436.80000000000007, 62.400000000000006) scale(1.6)" fill="rgba(0, 0, 0, 1)"></use>
            <use xlink:href="#SvgjsG1671" transform="translate(436.80000000000007, 124.80000000000001) scale(1.6)" fill="rgba(0, 0, 0, 1)"></use>
            <use xlink:href="#SvgjsG1671" transform="translate(436.80000000000007, 187.20000000000002) scale(1.6)" fill="rgba(0, 0, 0, 1)"></use>
            <use xlink:href="#SvgjsG1670" transform="translate(436.80000000000007, 249.60000000000002) scale(1.6)" fill="rgba(0, 0, 0, 1)"></use>
            <use xlink:href="#SvgjsG1671" transform="translate(436.80000000000007, 312) scale(1.6)" fill="rgba(0, 0, 0, 1)"></use>
            <use xlink:href="#SvgjsG1671" transform="translate(436.80000000000007, 374.40000000000003) scale(1.6)" fill="rgba(0, 0, 0, 1)"></use>
            <use xlink:href="#SvgjsG1671" transform="translate(436.80000000000007, 436.80000000000007) scale(1.6)" fill="rgba(0, 0, 0, 1)"></use>
            <use xlink:href="#SvgjsG1671" transform="translate(436.80000000000007, 499.20000000000005) scale(1.6)" fill="rgba(0, 0, 0, 1)"></use>
            <use xlink:href="#SvgjsG1670" transform="translate(436.80000000000007, 561.6) scale(1.6)" fill="rgba(0, 0, 0, 1)"></use>
            <use xlink:href="#SvgjsG1670" transform="translate(499.20000000000005, 0) scale(1.6)" fill="rgba(0, 0, 0, 1)"></use>
            <use xlink:href="#SvgjsG1670" transform="translate(499.20000000000005, 62.400000000000006) scale(1.6)" fill="rgba(0, 0, 0, 1)"></use>
            <use xlink:href="#SvgjsG1670" transform="translate(499.20000000000005, 124.80000000000001) scale(1.6)" fill="rgba(0, 0, 0, 1)"></use>
            <use xlink:href="#SvgjsG1671" transform="translate(499.20000000000005, 187.20000000000002) scale(1.6)" fill="rgba(0, 0, 0, 1)"></use>
            <use xlink:href="#SvgjsG1671" transform="translate(499.20000000000005, 249.60000000000002) scale(1.6)" fill="rgba(0, 0, 0, 1)"></use>
            <use xlink:href="#SvgjsG1670" transform="translate(499.20000000000005, 312) scale(1.6)" fill="rgba(0, 0, 0, 1)"></use>
            <use xlink:href="#SvgjsG1670" transform="translate(499.20000000000005, 374.40000000000003) scale(1.6)" fill="rgba(0, 0, 0, 1)"></use>
            <use xlink:href="#SvgjsG1671" transform="translate(499.20000000000005, 436.80000000000007) scale(1.6)" fill="rgba(0, 0, 0, 1)"></use>
            <use xlink:href="#SvgjsG1671" transform="translate(499.20000000000005, 499.20000000000005) scale(1.6)" fill="rgba(0, 0, 0, 1)"></use>
            <use xlink:href="#SvgjsG1670" transform="translate(499.20000000000005, 561.6) scale(1.6)" fill="rgba(0, 0, 0, 1)"></use>
            <use xlink:href="#SvgjsG1671" transform="translate(561.6, 0) scale(1.6)" fill="rgba(0, 0, 0, 1)"></use>
            <use xlink:href="#SvgjsG1671" transform="translate(561.6, 62.400000000000006) scale(1.6)" fill="rgba(0, 0, 0, 1)"></use>
            <use xlink:href="#SvgjsG1671" transform="translate(561.6, 124.80000000000001) scale(1.6)" fill="rgba(0, 0, 0, 1)"></use>
            <use xlink:href="#SvgjsG1670" transform="translate(561.6, 187.20000000000002) scale(1.6)" fill="rgba(0, 0, 0, 1)"></use>
            <use xlink:href="#SvgjsG1670" transform="translate(561.6, 249.60000000000002) scale(1.6)" fill="rgba(0, 0, 0, 1)"></use>
            <use xlink:href="#SvgjsG1670" transform="translate(561.6, 312) scale(1.6)" fill="rgba(0, 0, 0, 1)"></use>
            <use xlink:href="#SvgjsG1670" transform="translate(561.6, 374.40000000000003) scale(1.6)" fill="rgba(0, 0, 0, 1)"></use>
            <use xlink:href="#SvgjsG1671" transform="translate(561.6, 436.80000000000007) scale(1.6)" fill="rgba(0, 0, 0, 1)"></use>
            <use xlink:href="#SvgjsG1671" transform="translate(561.6, 499.20000000000005) scale(1.6)" fill="rgba(0, 0, 0, 1)"></use>
            <use xlink:href="#SvgjsG1671" transform="translate(561.6, 561.6) scale(1.6)" fill="rgba(0, 0, 0, 1)"></use>
        </g>
    </defs>
</svg>
