<svg xmlns="http://www.w3.org/2000/svg" width="868.644" height="699.464"><path fill="#a0616a" d="m360.82 595.432 9.53-3.065-7.29-38.217-14.066 4.525 11.826 36.757z"/><path d="m369.27 586.704-.01.003-9.991 3.881-.01.003-2.311.902 5.151 22.216.274 1.19 6.774-2.172-.158-1.223-.697-5.56 4.222 4.43.918.966 17.949-5.764a4.16 4.16 0 0 0 2.404-2.01c.546-.975.696-2.17.32-3.321-.382-3.779-17.762-6.633-20.31-8.043l-2.074-6.46-2.451.962ZM343.329 462.686a9.17 9.17 0 0 1 3.09 4.975l2.047 8.736 21.583 93.183-23.624 8.881c-15.216-30.369-24.307-49.402-24.82-70.756-.145-5.916.375-12.02 1.6-18.59 0 0-15.383 10.47-33.663 22.454-1.605 1.051-3.236 2.12-4.888 3.186-15.165 9.876-31.512 20.233-42.413 26.301-6.632 3.694-12.978 3.665-18.67 1.408-16.252-6.397-27.326-30.81-25.176-38.377l24.551-36.54 30.372 15.142 3.175 1.58 53.12-31.175a21.4 21.4 0 0 1 24.45 1.948l9.266 7.644Z" fill="#2f2e41"/><path d="M839.898 282.138c7.5-13.8 12.37-27.33 14.11-39.81-6.954-.813-13.104-.247-18.475 1.556 9.247-15.408 15.42-34.385 7.385-44.126-5.06-5.37-11.6-9.39-19.33-12.06 2.5-11.57 2.53-22.41-.32-31.94-13.22-44.37-100.72 35.57-156.56.97-23.41-14.5-48.61 3.77-69.02 33.15 2.8 9.77 7.97 18.85 15.23 25.98a63.82 63.82 0 0 1-26.45-7.9c-21.84 39.19-35.04 88.25-28.43 110.43 4.29 14.39 14.56 24.06 28.97 29.04-2.5 11.57 51.516 94.625 61.47 94.538 26.46-.23 34.687-60.331 52.354 16.69l-39.354 240.31h57v-247.83c15.86-24.49 32.242-8.11 70-27.17 115.81-58.46 66.438-122.892 51.42-141.828Z" fill="#718096"/><path d="M502.215 680.777c2.066.13 3.207-2.437 1.644-3.933l-.155-.618.062-.149c2.089-4.982 9.17-4.947 11.241.042 1.839 4.428 4.18 8.864 4.756 13.546a18.029 18.029 0 0 1-.317 6.2c4.308-9.41 6.576-19.686 6.576-30.02 0-2.597-.143-5.193-.433-7.783a71.607 71.607 0 0 0-.995-6.31c-2.306-11.278-7.298-22.019-14.5-30.99-3.462-1.893-6.35-4.85-8.093-8.397-.626-1.279-1.117-2.654-1.35-4.056.394.052 1.486-5.949 1.189-6.317.549-.833 1.531-1.247 2.13-2.06 2.983-4.044 7.092-3.338 9.237 2.157 4.582 2.313 4.627 6.148 1.815 9.837-1.789 2.347-2.034 5.522-3.604 8.035.162.206.33.407.49.613a73.591 73.591 0 0 1 7.682 12.169c-.61-4.766.29-10.508 1.826-14.21 1.749-4.217 5.025-7.769 7.91-11.415 3.467-4.379 10.574-2.468 11.185 3.084l.017.16c-.428.243-.848.5-1.258.77-2.34 1.548-1.531 5.175 1.24 5.603l.063.01a30.628 30.628 0 0 1-.807 4.579c3.702 14.315-4.29 19.53-15.701 19.764-.252.129-.498.258-.75.38a73.187 73.187 0 0 1 2.765 9.98 73.856 73.856 0 0 1 1.279 9.049c.297 3.83.27 7.68-.052 11.503l.02-.136c.82-4.21 3.106-8.144 6.426-10.87 4.945-4.063 11.933-5.559 17.268-8.824 2.568-1.572 5.86.46 5.411 3.437l-.022.142c-.794.323-1.569.698-2.318 1.118-.429.242-.849.498-1.259.77-2.34 1.547-1.53 5.174 1.241 5.601l.063.01.13.02a30.655 30.655 0 0 1-5.64 8.829c-2.314 12.497-12.255 13.683-22.89 10.043h-.006a75.092 75.092 0 0 1-5.045 14.726h-18.02c-.064-.2-.122-.406-.18-.607 1.666.104 3.345.007 4.986-.297-1.337-1.64-2.674-3.294-4.011-4.934a1.12 1.12 0 0 1-.084-.097c-.678-.84-1.363-1.673-2.041-2.513a29.99 29.99 0 0 1 .878-7.64ZM606.606 674.963c2.813.176 4.367-3.319 2.24-5.355l-.212-.842c.027-.067.055-.135.084-.202 2.844-6.782 12.483-6.735 15.304.057 2.503 6.029 5.69 12.067 6.474 18.441.352 2.814.194 5.68-.43 8.442 5.864-12.812 8.95-26.802 8.95-40.87 0-3.535-.193-7.07-.589-10.596a97.488 97.488 0 0 0-1.354-8.59c-3.139-15.353-9.936-29.976-19.74-42.19-4.713-2.576-8.644-6.603-11.018-11.43-.853-1.742-1.521-3.615-1.838-5.523.537.07 2.023-8.098 1.618-8.6.748-1.134 2.086-1.697 2.902-2.804 4.06-5.505 9.654-4.544 12.574 2.937 6.238 3.148 6.299 8.37 2.471 13.391-2.435 3.195-2.77 7.518-4.907 10.939.22.281.449.554.669.835a100.186 100.186 0 0 1 10.457 16.567c-.831-6.49.395-14.306 2.486-19.345 2.38-5.742 6.84-10.577 10.77-15.54 4.718-5.962 14.394-3.36 15.225 4.197l.024.22c-.584.329-1.156.678-1.714 1.048-3.185 2.106-2.084 7.043 1.69 7.626l.085.013a41.697 41.697 0 0 1-1.099 6.234c5.04 19.49-5.84 26.588-21.376 26.907-.343.176-.677.352-1.02.519a99.637 99.637 0 0 1 3.764 13.585 100.548 100.548 0 0 1 1.74 12.319 96.99 96.99 0 0 1-.07 15.66l.027-.184c1.116-5.733 4.23-11.088 8.749-14.799 6.733-5.53 16.245-7.567 23.509-12.013 3.496-2.14 7.977.625 7.366 4.679l-.03.194c-1.08.44-2.136.95-3.156 1.521-.584.33-1.155.68-1.714 1.048-3.185 2.107-2.084 7.044 1.69 7.627l.086.013.175.026c-1.855 4.405-4.44 8.494-7.676 12.02-3.151 17.014-16.685 18.628-31.162 13.673h-.01a102.23 102.23 0 0 1-6.867 20.049h-24.532c-.088-.273-.167-.554-.246-.827 2.268.14 4.554.009 6.788-.404-1.82-2.234-3.64-4.485-5.46-6.718a1.524 1.524 0 0 1-.115-.132c-.923-1.143-1.855-2.278-2.778-3.42v-.002a40.829 40.829 0 0 1 1.195-10.4l.001-.001ZM744.215 680.777c2.066.13 3.207-2.437 1.644-3.933l-.155-.618.062-.149c2.089-4.982 9.17-4.947 11.241.042 1.839 4.428 4.18 8.864 4.756 13.546a18.029 18.029 0 0 1-.317 6.2c4.308-9.41 6.576-19.686 6.576-30.02 0-2.597-.143-5.193-.433-7.783a71.607 71.607 0 0 0-.995-6.31c-2.306-11.278-7.298-22.019-14.5-30.99-3.462-1.893-6.35-4.85-8.093-8.397-.626-1.279-1.117-2.654-1.35-4.056.394.052 1.486-5.949 1.189-6.317.549-.833 1.531-1.247 2.13-2.06 2.983-4.044 7.092-3.338 9.237 2.157 4.582 2.313 4.627 6.148 1.815 9.837-1.789 2.347-2.034 5.522-3.604 8.035.162.206.33.407.49.613a73.591 73.591 0 0 1 7.682 12.169c-.61-4.766.29-10.508 1.826-14.21 1.749-4.217 5.025-7.769 7.91-11.415 3.467-4.379 10.574-2.468 11.185 3.084l.017.16c-.428.243-.848.5-1.258.77-2.34 1.548-1.531 5.175 1.24 5.603l.063.01a30.628 30.628 0 0 1-.807 4.579c3.702 14.315-4.29 19.53-15.701 19.764-.252.129-.498.258-.75.38a73.187 73.187 0 0 1 2.765 9.98 73.856 73.856 0 0 1 1.279 9.049c.297 3.83.27 7.68-.052 11.503l.02-.136c.82-4.21 3.106-8.144 6.426-10.87 4.945-4.063 11.933-5.559 17.268-8.824 2.568-1.572 5.86.46 5.411 3.437l-.022.142c-.794.323-1.569.698-2.318 1.118-.429.242-.849.498-1.259.77-2.34 1.547-1.53 5.174 1.241 5.601l.063.01.13.02a30.655 30.655 0 0 1-5.64 8.829c-2.314 12.497-12.255 13.683-22.89 10.043h-.006a75.092 75.092 0 0 1-5.045 14.726h-18.02c-.064-.2-.122-.406-.18-.607 1.666.104 3.345.007 4.986-.297-1.337-1.64-2.674-3.294-4.011-4.934a1.12 1.12 0 0 1-.084-.097c-.678-.84-1.363-1.673-2.041-2.513a29.99 29.99 0 0 1 .878-7.64ZM296.831 674.435c2.88.18 4.472-3.398 2.293-5.484l-.217-.862.086-.206c2.913-6.946 12.785-6.898 15.673.058 2.563 6.173 5.827 12.358 6.63 18.885.36 2.882.198 5.817-.44 8.645 6.005-13.12 9.166-27.447 9.166-41.855 0-3.62-.198-7.24-.603-10.85a99.829 99.829 0 0 0-1.387-8.798c-3.215-15.722-10.176-30.697-20.216-43.205-4.826-2.639-8.852-6.763-11.283-11.706-.873-1.783-1.558-3.701-1.882-5.655.55.072 2.071-8.294 1.657-8.807.765-1.162 2.136-1.74 2.972-2.873 4.157-5.637 9.886-4.652 12.876 3.008 6.389 3.224 6.45 8.572 2.53 13.714-2.493 3.272-2.836 7.7-5.024 11.202.225.288.46.568.684.856a102.599 102.599 0 0 1 10.71 16.965c-.851-6.645.404-14.65 2.546-19.81 2.437-5.88 7.005-10.832 11.028-15.915 4.832-6.106 14.741-3.441 15.593 4.298l.024.225c-.598.337-1.183.695-1.755 1.074-3.262 2.157-2.134 7.213 1.73 7.81l.088.013a42.7 42.7 0 0 1-1.126 6.384c5.161 19.96-5.981 27.228-21.89 27.555-.352.18-.694.36-1.045.531 1.612 4.539 2.9 9.194 3.854 13.913a102.97 102.97 0 0 1 1.783 12.615 99.327 99.327 0 0 1-.072 16.038l.027-.19c1.143-5.87 4.331-11.354 8.96-15.154 6.895-5.664 16.636-7.75 24.075-12.303 3.58-2.191 8.169.64 7.544 4.792l-.03.199c-1.108.45-2.189.972-3.233 1.558-.598.337-1.183.695-1.755 1.073-3.262 2.157-2.134 7.213 1.73 7.81l.088.013.18.028c-1.9 4.51-4.547 8.698-7.861 12.31-3.227 17.422-17.087 19.075-31.913 14.002h-.01a104.693 104.693 0 0 1-7.032 20.53H297.46c-.09-.279-.172-.567-.253-.846 2.324.144 4.665.009 6.952-.414-1.864-2.287-3.728-4.593-5.592-6.88a1.561 1.561 0 0 1-.117-.135c-.945-1.17-1.9-2.332-2.845-3.503v-.001a41.812 41.812 0 0 1 1.224-10.651l.001-.001ZM161.215 680.777c2.066.13 3.207-2.437 1.644-3.933l-.155-.618.062-.149c2.089-4.982 9.17-4.947 11.241.042 1.839 4.428 4.18 8.864 4.756 13.546a18.029 18.029 0 0 1-.317 6.2c4.308-9.41 6.576-19.686 6.576-30.02 0-2.597-.143-5.193-.433-7.783a71.607 71.607 0 0 0-.995-6.31c-2.306-11.278-7.298-22.019-14.5-30.99-3.462-1.893-6.35-4.85-8.093-8.397-.626-1.279-1.117-2.654-1.35-4.056.394.052 1.486-5.949 1.189-6.317.549-.833 1.531-1.247 2.13-2.06 2.983-4.044 7.092-3.338 9.237 2.157 4.582 2.313 4.627 6.148 1.815 9.837-1.789 2.347-2.034 5.522-3.604 8.035.162.206.33.407.49.613a73.591 73.591 0 0 1 7.682 12.169c-.61-4.766.29-10.508 1.826-14.21 1.749-4.217 5.025-7.769 7.91-11.415 3.467-4.379 10.574-2.468 11.185 3.084l.017.16c-.428.243-.848.5-1.258.77-2.34 1.548-1.531 5.175 1.24 5.603l.063.01a30.628 30.628 0 0 1-.807 4.579c3.702 14.315-4.29 19.53-15.701 19.764-.252.129-.498.258-.75.38a73.187 73.187 0 0 1 2.765 9.98 73.856 73.856 0 0 1 1.279 9.049c.297 3.83.27 7.68-.052 11.503l.02-.136c.82-4.21 3.106-8.144 6.426-10.87 4.945-4.063 11.933-5.559 17.268-8.824 2.568-1.572 5.86.46 5.411 3.437l-.022.142c-.794.323-1.569.698-2.318 1.118-.429.242-.849.498-1.259.77-2.34 1.547-1.53 5.174 1.241 5.601l.063.01.13.02a30.655 30.655 0 0 1-5.64 8.829c-2.314 12.497-12.255 13.683-22.89 10.043h-.006a75.092 75.092 0 0 1-5.045 14.726h-18.02c-.064-.2-.122-.406-.18-.607 1.666.104 3.345.007 4.986-.297-1.337-1.64-2.674-3.294-4.011-4.934a1.12 1.12 0 0 1-.084-.097c-.678-.84-1.363-1.673-2.041-2.513a29.99 29.99 0 0 1 .878-7.64Z" fill="#27c900"/><g fill="#a0616a"><path d="M234.72 383.122s-31.902-1.498-24.875 7.368c4.574 5.77 25.894 38.265 37.99 44.77 6.023 3.24 13.525.623 16.241-5.654l22.54-52.09-14.788-5.365-17.894 41.217-19.215-30.246Z"/><circle cx="279.507" cy="369.013" r="11"/></g><path d="m292.179 429.67-42.804-4.29.174-.582c8.627-28.8 15.673-53.92 14.495-69.671a1.195 1.195 0 0 1 .57-1.11c.39-.239.875-.242 1.266-.006l45.256 27.393-3.403 15.394-15.554 32.873Z" fill="#e6e6e6"/><path fill="#a0616a" d="m244.428 457.22 9.859 32.15-44.859 4.85 16-41 19 4z"/><path d="M255.408 432.34c-1.07 7.64-1.32 14.86.02 18.88.357 1.068 5.692 8.882 6 10 2.755 9.983-9 12-9 12l-45.093 14.97c-2.596.862-4.782-2.146-3.123-4.321 3.699-4.85 7.077-11.858 6.836-21.14-.375-14.463-6.776-37.465-10.314-49.16a20.67 20.67 0 0 1 .98-14.562l5.034-11.048 7.32-16.05 2.36-11.69 21 1 2.59 9.51 19.54 29.83c.79 1.21 1.31 2.56 1.54 3.95.31 1.74.16 3.56-.45 5.27-2.03 5.69-4.1 14.36-5.24 22.56Z" fill="#27c900"/><path d="M197.058 347.616c8.39 10.46-6.49 27.3 2.63 37.13-1.75.7-3.62.97-5.5.88a35.518 35.518 0 0 0-3.53-8.18c.26 2.48.06 5.02-.6 7.43-1.41-.43-2.77-1.05-4.03-1.81-.16-.09-.3-.18-.46-.29-4.12-7.69-5.71-16.74-4.26-25.34-2.78 4.01-5.46 8.22-6.94 12.85-5.01-7.92-8.49-16.95-8.27-26.27.22-10.37 5.8-21.01 15.28-25.23 3.91-1.74 8.55-2.52 11.28-5.82 1.47-1.76 2.17-4.02 3.23-6.06s2.71-4.02 4.99-4.35c1.36-.19 2.81.56 3.56 1.64-3.69 4.04-3.48 10.6-2.28 16.11 1.28 5.92 5.15 13.26 1.2 17.85-2.43 2.83-14.33-.54-6.3 9.46Z" fill="#2f2e41"/><path d="M245.882 338.688c-.542-1.895 3.191 9.693 1.39 9.903-8.206.94-19.47 5.841-25.184 8.127-.258-.03-.515-.06-.765-.097a23.217 23.217 0 0 1-1.801-.276c-13.307-2.518-18.425-22.96-18.425-23.146 0-.919 2.206-26.158 5.68-26.532.901-.097 1.817-.15 2.748-.15h8.622a40.07 40.07 0 0 1 5.412-.784h.015c24.851-2.834 36.85 8.086 29.763 22.13-.008.015-.023.03-.03.045a26.77 26.77 0 0 0-.984 1.576c-.28.47-.515.919-.72 1.345-1.582 3.287 2.485 7.424-.211 8.196-3.587 1.027 9.432 34.778-4.763 34.778 6.904 1.963.747-29.885-.747-35.115Z" fill="#2f2e41"/><circle cx="230.387" cy="338.08" r="20.413" fill="#a0616a"/><path d="M253.337 328.976c-.34.18-.67.34-1.01.51-.36.17-.72.34-1.07.5-2.28 1.03-4.42 1.76-6.38 2.09a24.3 24.3 0 0 0-2.21-4.94c.18 1.73.03 3.5-.44 5.18-2.73-.05-5.02-1.08-6.75-3.34-.09-2.33-.61-4.65-1.55-6.8.18 2.38-.48 4.81-1.8 6.8l.35 27.99c-7 4.65 8.12 20.33 6 24-.61-.07-21.4-26.11-21.99-26.22-13.31-2.52-21.76-24.44-20.68-25.68 0-3.65.85-7.09 2.37-10.17 1.97-4 5.06-7.36 8.89-9.67 2.25-1.09 4.63-1.98 7.1-2.66.06-.02.11-.03.17-.05.75-.2 1.52-.39 2.28-.54 1.57-.33 3.16-.58 4.78-.73.12-.01.23-.01.34-.01.66 0 1.28.18 1.82.5h.02c.39.24.74.54 1.01.91.47.6.74 1.34.74 2.16h7.57c.28 0 .56 0 .84.02 10.55.42 19.02 8.71 19.57 19.08.02.36.03.71.03 1.07Z" fill="#2f2e41"/><path d="M222.154 309.003c0 7.427-6.021 13.448-13.448 13.448-7.428 0-13.448-6.021-13.448-13.448s6.02-13.448 13.448-13.448c7.427 0 13.448 6.02 13.448 13.448Z" fill="#2f2e41"/><path d="M849.478 609.053V569.88c5.279-2.168 9-7.353 9-13.414s-3.721-11.246-9-13.413v-16.587a3.5 3.5 0 0 0-7 0v15.5c-140.765 5.024-280.373 9.792-354 0v-15.5a3.5 3.5 0 0 0-7 0v15.5h-352v-15.5a3.5 3.5 0 0 0-7 0v16.221c-5.804 1.895-10 7.343-10 13.78s4.196 11.884 10 13.779v38.441c-5.804 1.895-10 7.343-10 13.78s4.196 11.884 10 13.779v57.22a3.5 3.5 0 0 0 7 0v-56.5h352v56.5a3.5 3.5 0 0 0 7 0v-56.5h354v56.5a3.5 3.5 0 0 0 7 0V635.88c5.279-2.168 9-7.353 9-13.414s-3.721-11.246-9-13.413Zm-720-38.087c136.947-11.127 270.944-20.582 352 0-7.488 12.446-7.628 24.782 0 37-93.413 11.027-218.425 7.488-352 0 4.2-10.978 3.426-23.56 0-37Zm359 37v-37h354c-14.821 12.004-17.075 24.288 0 37-68.509 23.403-221.002 7.093-354 0Z" fill="#4A5568"/><path d="M291.678 445.032c-.726 0-1.461-.072-2.2-.222l-41.876-8.509c-2.666-.542-4.914-2.238-6.166-4.654s-1.342-5.23-.247-7.72l16.193-36.836c.888-2.02 2.968-3.306 5.17-3.171l37.607 2.097c1.019.044 1.6-.582 1.83-1.197.228-.616.189-1.491-.606-2.102l-36.181-27.774a.583.583 0 0 1-.125-.795.58.58 0 0 1 .784-.175l46.374 27.074a8.482 8.482 0 0 1 3.854 9.811l-14.05 46.45a10.81 10.81 0 0 1-10.361 7.723Zm-26.324-90.195.004.002-.004-.002Z" fill="#3f3d56"/><g fill="#a0616a"><path d="M243.478 400.966s-21.887-23.258-23-12c-.725 7.327-7.996 45.506-3.826 58.592 2.077 6.516 9.288 9.852 15.604 7.23l52.42-21.767-6.9-14.138-41.518 17.182 7.22-35.099Z"/><circle cx="285.478" cy="421.967" r="11"/></g><path d="M82.974 698.274c0 .66.53 1.19 1.19 1.19h783.29c.66 0 1.19-.53 1.19-1.19 0-.66-.53-1.19-1.19-1.19H84.164c-.66 0-1.19.53-1.19 1.19Z" fill="#4A5568"/><path fill="#a0616a" d="m230.324 665.547 8.046 5.957 26.805-28.2-11.875-8.79-22.976 31.033z"/><path d="m240.51 674.21 4.04-5.454-2.211-1.437-8.988-5.864-2.083-1.353-15.049 17.139-.807.919 5.713 4.23.904-.837 4.103-3.806-1.131 6.006-.251 1.32 15.146 11.214a4.16 4.16 0 0 0 3.027.789 4.196 4.196 0 0 0 2.896-1.678c2.85-2.513-4.967-18.292-5.308-21.188ZM328.428 581.22l-2.03 2.33-5.9 6.76-63.07 71.91-21-14c15.78-30.08 25.93-48.57 42.97-61.45 4.72-3.57 9.98-6.71 16.03-9.55 0 0-17.48-6.38-37.88-14.23-1.79-.69-3.61-1.39-5.44-2.11-16.87-6.55-34.82-13.78-46.11-19.09-6.87-3.23-10.55-8.4-12.04-14.34-4.29-16.93 9.07-40.17 16.47-42.84l44-1.39 5.43 33.5.57 3.5s16.12 7.79 33.04 15.58c2.54 1.16 5.09 2.33 7.61 3.47a942.286 942.286 0 0 0 11.769 5.217c10.49 4.531 17.02 15.144 16.26 26.547l-.679 10.185Z" fill="#2f2e41"/></svg>