<?xml version="1.0" standalone="no"?><svg xmlns:xlink="http://www.w3.org/1999/xlink" xmlns="http://www.w3.org/2000/svg" viewBox="0 0 1000 500" preserveAspectRatio="xMaxYMax slice"><g transform="scale(0.7052186177715092)"><rect x="0" y="0" width="1418" height="709" fill="#ffffff"/><path d="M 88.63 53.18000000000001 A 35.45 35.45 0 0 1  124.08 17.73 L 88.63 53.18000000000001 A 35.45 35.45 0 0 0 124.08 17.73" fill="#93ce85"/><path d="M 514.03 17.73 A 35.45 35.45 0 0 1  549.48 53.18000000000001 L 514.03 17.73 A 35.45 35.45 0 0 0 549.48 53.18000000000001" fill="#e3f0e0"/><path d="M 655.83 17.73 A 35.45 35.45 0 0 1  691.2800000000001 53.18000000000001 L 655.83 17.73 A 35.45 35.45 0 0 0 691.2800000000001 53.18000000000001" fill="#3faa25"/><path d="M 1152.13 17.73 A 35.45 35.45 0 0 1  1187.5800000000002 53.18000000000001 L 1152.13 17.73 A 35.45 35.45 0 0 0 1187.5800000000002 53.18000000000001" fill="#7ac367"/><rect x="17.725" y="88.625" width="35.45" height="35.45" fill="#ffffff"/><path d="M 17.73 106.35 A 17.73 17.73 0 0 1  35.46 124.08 L 17.73 106.35 A 17.73 17.73 0 0 0 35.46 124.08" fill="#a3d596"/><path d="M 35.45 124.08 A 17.73 17.73 0 0 1  53.18000000000001 106.35 L 35.45 124.08 A 17.73 17.73 0 0 0 53.18000000000001 106.35" fill="#dcedd8"/><rect x="88.625" y="88.625" width="35.45" height="35.45" fill="#ffffff"/><path d="M 88.63 106.35 A 17.73 17.73 0 0 1  106.36 124.08 L 88.63 106.35 A 17.73 17.73 0 0 0 106.36 124.08" fill="#ffffff"/><path d="M 159.53 88.63 A 35.45 35.45 0 0 1  194.98000000000002 124.08 L 159.53 88.63 A 35.45 35.45 0 0 0 194.98000000000002 124.08" fill="#7cc46b"/><path d="M 230.43 124.08 A 35.45 35.45 0 0 1  265.88 88.63 L 230.43 124.08 A 35.45 35.45 0 0 0 265.88 88.63" fill="#6ebe5a"/><path d="M 1293.93 124.08 A 35.45 35.45 0 0 1  1329.38 88.63 L 1293.93 124.08 A 35.45 35.45 0 0 0 1329.38 88.63" fill="#a3d597"/><path d="M 230.43 194.98000000000002 A 35.45 35.45 0 0 1  265.88 159.53 L 230.43 194.98000000000002 A 35.45 35.45 0 0 0 265.88 159.53" fill="#c0e1b8"/><rect x="301.32500000000005" y="159.525" width="35.45" height="35.45" fill="#ffffff"/><path d="M 301.33 159.53 A 17.73 17.73 0 0 1  319.06 177.26 L 301.33 159.53 A 17.73 17.73 0 0 0 319.06 177.26" fill="#60b84a"/><path d="M 372.23 159.53 A 35.45 35.45 0 0 1  407.68 194.98000000000002 L 372.23 159.53 A 35.45 35.45 0 0 0 407.68 194.98000000000002" fill="#bef4b0"/><rect x="443.12500000000006" y="159.525" width="35.45" height="35.45" fill="#ffffff"/><path d="M 460.85 159.53 A 17.73 17.73 0 0 1  478.58000000000004 177.26 L 460.85 159.53 A 17.73 17.73 0 0 0 478.58000000000004 177.26" fill="#e7f8e2"/><path d="M 460.85 194.98 A 17.73 17.73 0 0 1  478.58000000000004 177.25 L 460.85 194.98 A 17.73 17.73 0 0 0 478.58000000000004 177.25" fill="#f1f9f0"/><rect x="584.9250000000001" y="159.525" width="35.45" height="35.45" fill="#ffffff"/><path d="M 584.93 177.26 A 17.73 17.73 0 0 1  602.66 159.53 L 584.93 177.26 A 17.73 17.73 0 0 0 602.66 159.53" fill="#3ca922"/><path d="M 726.73 194.98000000000002 A 35.45 35.45 0 0 1  762.1800000000001 159.53 L 726.73 194.98000000000002 A 35.45 35.45 0 0 0 762.1800000000001 159.53" fill="#d3e9cd"/><rect x="939.4250000000001" y="159.525" width="35.45" height="35.45" fill="#ffffff"/><path d="M 939.43 194.98 A 17.73 17.73 0 0 1  957.16 177.25 L 939.43 194.98 A 17.73 17.73 0 0 0 957.16 177.25" fill="#c4f5b8"/><rect x="1010.3250000000002" y="159.525" width="35.45" height="35.45" fill="#ffffff"/><path d="M 1010.33 159.53 A 17.73 17.73 0 0 1  1028.06 177.26 L 1010.33 159.53 A 17.73 17.73 0 0 0 1028.06 177.26" fill="#e8f8e4"/><path d="M 1010.33 177.25 A 17.73 17.73 0 0 1  1028.06 194.98 L 1010.33 177.25 A 17.73 17.73 0 0 0 1028.06 194.98" fill="#eef5ec"/><path d="M 1081.22 194.98000000000002 A 35.45 35.45 0 0 1  1116.67 159.53 L 1081.22 194.98000000000002 A 35.45 35.45 0 0 0 1116.67 159.53" fill="#dcedd8"/><rect x="230.425" y="230.425" width="35.45" height="35.45" fill="#ffffff"/><path d="M 230.43 248.15 A 17.73 17.73 0 0 1  248.16 265.88 L 230.43 248.15 A 17.73 17.73 0 0 0 248.16 265.88" fill="#edf9ea"/><rect x="443.12500000000006" y="230.425" width="35.45" height="35.45" fill="#ffffff"/><path d="M 443.13 230.43 A 17.73 17.73 0 0 1  460.86 248.16 L 443.13 230.43 A 17.73 17.73 0 0 0 460.86 248.16" fill="#7bc368"/><path d="M 443.13 265.88 A 17.73 17.73 0 0 1  460.86 248.15 L 443.13 265.88 A 17.73 17.73 0 0 0 460.86 248.15" fill="#f9faf9"/><path d="M 460.85 248.15 A 17.73 17.73 0 0 1  478.58000000000004 265.88 L 460.85 248.15 A 17.73 17.73 0 0 0 478.58000000000004 265.88" fill="#dbf7d4"/><rect x="655.825" y="230.425" width="35.45" height="35.45" fill="#ffffff"/><path d="M 655.83 230.43 A 17.73 17.73 0 0 1  673.5600000000001 248.16 L 655.83 230.43 A 17.73 17.73 0 0 0 673.5600000000001 248.16" fill="#e4f8df"/><path d="M 1293.93 265.88 A 35.45 35.45 0 0 1  1329.38 230.43 L 1293.93 265.88 A 35.45 35.45 0 0 0 1329.38 230.43" fill="#b2dba8"/><path d="M 159.53 301.33 A 35.45 35.45 0 0 1  194.98000000000002 336.78 L 159.53 301.33 A 35.45 35.45 0 0 0 194.98000000000002 336.78" fill="#3aa81f"/><rect x="230.425" y="301.32500000000005" width="35.45" height="35.45" fill="#ffffff"/><path d="M 230.43 301.33 A 17.73 17.73 0 0 1  248.16 319.06 L 230.43 301.33 A 17.73 17.73 0 0 0 248.16 319.06" fill="#e7f8e2"/><path d="M 248.15 319.05 A 17.73 17.73 0 0 1  265.88 336.78000000000003 L 248.15 319.05 A 17.73 17.73 0 0 0 265.88 336.78000000000003" fill="#eff9ed"/><rect x="797.6250000000001" y="301.32500000000005" width="35.45" height="35.45" fill="#ffffff"/><path d="M 815.35 301.33 A 17.73 17.73 0 0 1  833.08 319.06 L 815.35 301.33 A 17.73 17.73 0 0 0 833.08 319.06" fill="#e0f7da"/><path d="M 815.35 336.78000000000003 A 17.73 17.73 0 0 1  833.08 319.05 L 815.35 336.78000000000003 A 17.73 17.73 0 0 0 833.08 319.05" fill="#7ec56d"/><path d="M 1010.33 336.78 A 35.45 35.45 0 0 1  1045.78 301.33 L 1010.33 336.78 A 35.45 35.45 0 0 0 1045.78 301.33" fill="#f2f9f0"/><path d="M 230.43 372.23 A 35.45 35.45 0 0 1  265.88 407.68 L 230.43 372.23 A 35.45 35.45 0 0 0 265.88 407.68" fill="#95ce86"/><path d="M 584.93 407.68 A 35.45 35.45 0 0 1  620.38 372.23 L 584.93 407.68 A 35.45 35.45 0 0 0 620.38 372.23" fill="#abf299"/><path d="M 655.83 372.23 A 35.45 35.45 0 0 1  691.2800000000001 407.68 L 655.83 372.23 A 35.45 35.45 0 0 0 691.2800000000001 407.68" fill="#d7f6cf"/><path d="M 726.73 372.23 A 35.45 35.45 0 0 1  762.1800000000001 407.68 L 726.73 372.23 A 35.45 35.45 0 0 0 762.1800000000001 407.68" fill="#67bb52"/><path d="M 1152.13 407.68 A 35.45 35.45 0 0 1  1187.5800000000002 372.23 L 1152.13 407.68 A 35.45 35.45 0 0 0 1187.5800000000002 372.23" fill="#acd8a0"/><path d="M 1223.03 372.23 A 35.45 35.45 0 0 1  1258.48 407.68 L 1223.03 372.23 A 35.45 35.45 0 0 0 1258.48 407.68" fill="#e9f8e5"/><rect x="1293.925" y="372.225" width="35.45" height="35.45" fill="#ffffff"/><path d="M 1293.93 372.23 A 17.73 17.73 0 0 1  1311.66 389.96000000000004 L 1293.93 372.23 A 17.73 17.73 0 0 0 1311.66 389.96000000000004" fill="#bee0b5"/><path d="M 1311.65 389.96000000000004 A 17.73 17.73 0 0 1  1329.38 372.23 L 1311.65 389.96000000000004 A 17.73 17.73 0 0 0 1329.38 372.23" fill="#e2f8dd"/><path d="M 1311.65 389.95 A 17.73 17.73 0 0 1  1329.38 407.68 L 1311.65 389.95 A 17.73 17.73 0 0 0 1329.38 407.68" fill="#dcf7d5"/><path d="M 88.63 478.58 A 35.45 35.45 0 0 1  124.08 443.13 L 88.63 478.58 A 35.45 35.45 0 0 0 124.08 443.13" fill="#e2f8dc"/><rect x="443.12500000000006" y="443.12500000000006" width="35.45" height="35.45" fill="#ffffff"/><path d="M 443.13 443.13 A 17.73 17.73 0 0 1  460.86 460.86 L 443.13 443.13 A 17.73 17.73 0 0 0 460.86 460.86" fill="#57b440"/><path d="M 460.85 478.58000000000004 A 17.73 17.73 0 0 1  478.58000000000004 460.85 L 460.85 478.58000000000004 A 17.73 17.73 0 0 0 478.58000000000004 460.85" fill="#e4f8df"/><rect x="584.9250000000001" y="443.12500000000006" width="35.45" height="35.45" fill="#ffffff"/><path d="M 602.65 460.86 A 17.73 17.73 0 0 1  620.38 443.13 L 602.65 460.86 A 17.73 17.73 0 0 0 620.38 443.13" fill="#b3dca9"/><path d="M 584.93 460.85 A 17.73 17.73 0 0 1  602.66 478.58000000000004 L 584.93 460.85 A 17.73 17.73 0 0 0 602.66 478.58000000000004" fill="#f7f9f7"/><path d="M 939.43 478.58 A 35.45 35.45 0 0 1  974.88 443.13 L 939.43 478.58 A 35.45 35.45 0 0 0 974.88 443.13" fill="#d5f6cd"/><rect x="1010.3250000000002" y="443.12500000000006" width="35.45" height="35.45" fill="#ffffff"/><path d="M 1010.33 443.13 A 17.73 17.73 0 0 1  1028.06 460.86 L 1010.33 443.13 A 17.73 17.73 0 0 0 1028.06 460.86" fill="#66ba51"/><path d="M 1028.05 460.86 A 17.73 17.73 0 0 1  1045.78 443.13 L 1028.05 460.86 A 17.73 17.73 0 0 0 1045.78 443.13" fill="#f3f9f2"/><path d="M 1081.22 478.58 A 35.45 35.45 0 0 1  1116.67 443.13 L 1081.22 478.58 A 35.45 35.45 0 0 0 1116.67 443.13" fill="#f0f9ee"/><rect x="1223.025" y="443.12500000000006" width="35.45" height="35.45" fill="#ffffff"/><path d="M 1223.03 443.13 A 17.73 17.73 0 0 1  1240.76 460.86 L 1223.03 443.13 A 17.73 17.73 0 0 0 1240.76 460.86" fill="#30a314"/><path d="M 1240.75 478.58000000000004 A 17.73 17.73 0 0 1  1258.48 460.85 L 1240.75 478.58000000000004 A 17.73 17.73 0 0 0 1258.48 460.85" fill="#d1f6c7"/><path d="M 1364.83 478.58 A 35.45 35.45 0 0 1  1400.28 443.13 L 1364.83 478.58 A 35.45 35.45 0 0 0 1400.28 443.13" fill="#ebf3e9"/><path d="M 159.53 514.03 A 35.45 35.45 0 0 1  194.98000000000002 549.48 L 159.53 514.03 A 35.45 35.45 0 0 0 194.98000000000002 549.48" fill="#e2f8dc"/><rect x="230.425" y="514.0250000000001" width="35.45" height="35.45" fill="#ffffff"/><path d="M 230.43 549.48 A 17.73 17.73 0 0 1  248.16 531.75 L 230.43 549.48 A 17.73 17.73 0 0 0 248.16 531.75" fill="#e9f8e5"/><path d="M 248.15 531.75 A 17.73 17.73 0 0 1  265.88 549.48 L 248.15 531.75 A 17.73 17.73 0 0 0 265.88 549.48" fill="#b1f3a1"/><path d="M 301.33 549.48 A 35.45 35.45 0 0 1  336.78 514.03 L 301.33 549.48 A 35.45 35.45 0 0 0 336.78 514.03" fill="#b7f3a8"/><rect x="868.5250000000001" y="514.0250000000001" width="35.45" height="35.45" fill="#ffffff"/><path d="M 1010.33 549.48 A 35.45 35.45 0 0 1  1045.78 514.03 L 1010.33 549.48 A 35.45 35.45 0 0 0 1045.78 514.03" fill="#60b84a"/><path d="M 1081.22 549.48 A 35.45 35.45 0 0 1  1116.67 514.03 L 1081.22 549.48 A 35.45 35.45 0 0 0 1116.67 514.03" fill="#e7f8e3"/><path d="M 1223.03 514.03 A 35.45 35.45 0 0 1  1258.48 549.48 L 1223.03 514.03 A 35.45 35.45 0 0 0 1258.48 549.48" fill="#f4f9f3"/><path d="M 443.13 620.38 A 35.45 35.45 0 0 1  478.58 584.93 L 443.13 620.38 A 35.45 35.45 0 0 0 478.58 584.93" fill="#b2dba8"/><rect x="514.0250000000001" y="584.9250000000001" width="35.45" height="35.45" fill="#ffffff"/><path d="M 514.03 602.65 A 17.73 17.73 0 0 1  531.76 620.38 L 514.03 602.65 A 17.73 17.73 0 0 0 531.76 620.38" fill="#57b440"/><rect x="655.825" y="584.9250000000001" width="35.45" height="35.45" fill="#ffffff"/><path d="M 655.83 620.38 A 17.73 17.73 0 0 1  673.5600000000001 602.65 L 655.83 620.38 A 17.73 17.73 0 0 0 673.5600000000001 602.65" fill="#e8f2e6"/><rect x="726.725" y="584.9250000000001" width="35.45" height="35.45" fill="#ffffff"/><path d="M 744.45 584.93 A 17.73 17.73 0 0 1  762.1800000000001 602.66 L 744.45 584.93 A 17.73 17.73 0 0 0 762.1800000000001 602.66" fill="#2ca20f"/><path d="M 726.73 620.38 A 17.73 17.73 0 0 1  744.46 602.65 L 726.73 620.38 A 17.73 17.73 0 0 0 744.46 602.65" fill="#bbdfb3"/><path d="M 744.45 602.65 A 17.73 17.73 0 0 1  762.1800000000001 620.38 L 744.45 602.65 A 17.73 17.73 0 0 0 762.1800000000001 620.38" fill="#b1dba6"/><path d="M 797.63 620.38 A 35.45 35.45 0 0 1  833.08 584.93 L 797.63 620.38 A 35.45 35.45 0 0 0 833.08 584.93" fill="#b0f3a0"/><rect x="939.4250000000001" y="584.9250000000001" width="35.45" height="35.45" fill="#ffffff"/><path d="M 939.43 602.66 A 17.73 17.73 0 0 1  957.16 584.93 L 939.43 602.66 A 17.73 17.73 0 0 0 957.16 584.93" fill="#30a313"/><path d="M 957.15 602.66 A 17.73 17.73 0 0 1  974.88 584.93 L 957.15 602.66 A 17.73 17.73 0 0 0 974.88 584.93" fill="#f7faf6"/><path d="M 957.15 602.65 A 17.73 17.73 0 0 1  974.88 620.38 L 957.15 602.65 A 17.73 17.73 0 0 0 974.88 620.38" fill="#eff9ec"/><rect x="1010.3250000000002" y="584.9250000000001" width="35.45" height="35.45" fill="#ffffff"/><path d="M 1028.05 584.93 A 17.73 17.73 0 0 1  1045.78 602.66 L 1028.05 584.93 A 17.73 17.73 0 0 0 1045.78 602.66" fill="#e6f1e3"/><path d="M 1028.05 602.65 A 17.73 17.73 0 0 1  1045.78 620.38 L 1028.05 602.65 A 17.73 17.73 0 0 0 1045.78 620.38" fill="#f3f9f2"/><path d="M 1081.22 620.38 A 35.45 35.45 0 0 1  1116.67 584.93 L 1081.22 620.38 A 35.45 35.45 0 0 0 1116.67 584.93" fill="#f6f8f5"/><rect x="1152.125" y="584.9250000000001" width="35.45" height="35.45" fill="#ffffff"/><path d="M 1152.13 602.65 A 17.73 17.73 0 0 1  1169.8600000000001 620.38 L 1152.13 602.65 A 17.73 17.73 0 0 0 1169.8600000000001 620.38" fill="#59b542"/><path d="M 17.73 655.83 A 35.45 35.45 0 0 1  53.18000000000001 691.2800000000001 L 17.73 655.83 A 35.45 35.45 0 0 0 53.18000000000001 691.2800000000001" fill="#53b23c"/><path d="M 584.93 691.2800000000001 A 35.45 35.45 0 0 1  620.38 655.83 L 584.93 691.2800000000001 A 35.45 35.45 0 0 0 620.38 655.83" fill="#219d03"/><rect x="797.6250000000001" y="655.825" width="35.45" height="35.45" fill="#ffffff"/><path d="M 797.63 655.83 A 17.73 17.73 0 0 1  815.36 673.5600000000001 L 797.63 655.83 A 17.73 17.73 0 0 0 815.36 673.5600000000001" fill="#5ab543"/><rect x="1081.225" y="655.825" width="35.45" height="35.45" fill="#ffffff"/><path d="M 1098.95 655.83 A 17.73 17.73 0 0 1  1116.68 673.5600000000001 L 1098.95 655.83 A 17.73 17.73 0 0 0 1116.68 673.5600000000001" fill="#c1e2b9"/><path d="M 1081.22 673.55 A 17.73 17.73 0 0 1  1098.95 691.28 L 1081.22 673.55 A 17.73 17.73 0 0 0 1098.95 691.28" fill="#8bca7b"/><path d="M 1098.95 673.55 A 17.73 17.73 0 0 1  1116.68 691.28 L 1098.95 673.55 A 17.73 17.73 0 0 0 1116.68 691.28" fill="#bfe1b7"/></g></svg>
