<svg xmlns="http://www.w3.org/2000/svg" viewBox="0 0 1000 500" preserveAspectRatio="xMaxYMax slice"><path fill="#1A202C" d="M0 0h1000v500H0z"/><path d="M162.504 37.504a25 25 0 0 1 25-25l-25 25a25 25 0 0 0 25-25" fill="#1d6514"/><path fill="#1A202C" d="M212.5 12.5h25v25h-25z"/><path d="M225 37.504A12.504 12.504 0 0 1 237.504 25L225 37.504A12.504 12.504 0 0 0 237.504 25" fill="#1d6713"/><path fill="#1A202C" d="M262.5 12.5h25v25h-25z"/><path d="M275 25.007a12.504 12.504 0 0 1 12.504-12.503L275 25.007a12.504 12.504 0 0 0 12.504-12.503" fill="#1b3824"/><path d="M275 25a12.504 12.504 0 0 1 12.504 12.504L275 25a12.504 12.504 0 0 0 12.504 12.504" fill="#0f3d07"/><path fill="#1A202C" d="M812.5 12.5h25v25h-25z"/><path d="M812.504 12.504a12.504 12.504 0 0 1 12.503 12.503l-12.503-12.503a12.504 12.504 0 0 0 12.503 12.503" fill="#1d6314"/><path d="M825 37.504A12.504 12.504 0 0 1 837.504 25L825 37.504A12.504 12.504 0 0 0 837.504 25" fill="#152d1c"/><path fill="#1A202C" d="M862.5 12.5h25v25h-25z"/><path d="M862.504 25.007a12.504 12.504 0 0 1 12.503-12.503l-12.503 12.503a12.504 12.504 0 0 0 12.503-12.503" fill="#172723"/><path d="M962.504 37.504a25 25 0 0 1 25-25l-25 25a25 25 0 0 0 25-25" fill="#1e8b06"/><path fill="#1A202C" d="M62.5 62.5h25v25h-25z"/><path d="M62.504 87.504A12.504 12.504 0 0 1 75.007 75L62.504 87.504A12.504 12.504 0 0 0 75.007 75" fill="#1d740e"/><path d="M75 87.504A12.504 12.504 0 0 1 87.504 75L75 87.504A12.504 12.504 0 0 0 87.504 75" fill="#162c1d"/><path fill="#1A202C" d="M212.5 62.5h25v25h-25z"/><path d="M225 62.504a12.504 12.504 0 0 1 12.504 12.503L225 62.504a12.504 12.504 0 0 0 12.504 12.503" fill="#1d720f"/><path d="M362.504 62.504a25 25 0 0 1 25 25l-25-25a25 25 0 0 0 25 25" fill="#0f3f05"/><path fill="#1A202C" d="M462.5 62.5h25v25h-25z"/><path d="M475 62.504a12.504 12.504 0 0 1 12.504 12.503L475 62.504a12.504 12.504 0 0 0 12.504 12.503" fill="#143017"/><path d="M762.496 62.504a25 25 0 0 1 25 25l-25-25a25 25 0 0 0 25 25" fill="#11380d"/><path fill="#1A202C" d="M912.5 62.5h25v25h-25z"/><path d="M912.504 75.007a12.504 12.504 0 0 1 12.503-12.503l-12.503 12.503a12.504 12.504 0 0 0 12.503-12.503" fill="#192328"/><path d="M912.504 87.504A12.504 12.504 0 0 1 925.007 75l-12.503 12.504A12.504 12.504 0 0 0 925.007 75" fill="#103c08"/><path d="M12.504 112.504a25 25 0 0 1 25 25l-25-25a25 25 0 0 0 25 25" fill="#1c5a17"/><path d="M62.504 137.504a25 25 0 0 1 25-25l-25 25a25 25 0 0 0 25-25" fill="#1c501b"/><path fill="#1A202C" d="M262.5 112.5h25v25h-25z"/><path d="M275 112.504a12.504 12.504 0 0 1 12.504 12.503L275 112.504a12.504 12.504 0 0 0 12.504 12.503" fill="#162a1f"/><path fill="#1A202C" d="M562.5 112.5h25v25h-25z"/><path d="M562.504 125.007a12.504 12.504 0 0 1 12.503-12.503l-12.503 12.503a12.504 12.504 0 0 0 12.503-12.503" fill="#11390d"/><path d="M562.504 125a12.504 12.504 0 0 1 12.503 12.504L562.504 125a12.504 12.504 0 0 0 12.503 12.504" fill="#1a202c"/><path d="M575 137.504A12.504 12.504 0 0 1 587.504 125L575 137.504A12.504 12.504 0 0 0 587.504 125" fill="#0d4201"/><path d="M862.504 112.504a25 25 0 0 1 25 25l-25-25a25 25 0 0 0 25 25" fill="#162b1e"/><path fill="#1A202C" d="M962.5 112.5h25v25h-25z"/><path d="M975 125a12.504 12.504 0 0 1 12.504 12.504L975 125a12.504 12.504 0 0 0 12.504 12.504" fill="#152d1c"/><path fill="#1A202C" d="M12.5 162.5h25v25h-25z"/><path d="M25 175a12.504 12.504 0 0 1 12.504 12.504L25 175a12.504 12.504 0 0 0 12.504 12.504" fill="#152e1a"/><path fill="#1A202C" d="M62.5 162.5h25v25h-25z"/><path d="M75 175.007a12.504 12.504 0 0 1 12.504-12.503L75 175.007a12.504 12.504 0 0 0 12.504-12.503" fill="#0e3f04"/><path d="M112.504 162.504a25 25 0 0 1 25 25l-25-25a25 25 0 0 0 25 25" fill="#11390d"/><path d="M312.504 187.504a25 25 0 0 1 25-25l-25 25a25 25 0 0 0 25-25" fill="#143018"/><path d="M612.504 162.504a25 25 0 0 1 25 25l-25-25a25 25 0 0 0 25 25" fill="#182624"/><path fill="#1A202C" d="M712.5 162.5h25v25h-25z"/><path d="M725 175.007a12.504 12.504 0 0 1 12.504-12.503L725 175.007a12.504 12.504 0 0 0 12.504-12.503" fill="#0f3f05"/><path d="M712.504 187.504A12.504 12.504 0 0 1 725.007 175l-12.503 12.504A12.504 12.504 0 0 0 725.007 175" fill="#1b431f"/><path fill="#1A202C" d="M762.5 162.5h25v25h-25z"/><path d="M762.496 162.504A12.504 12.504 0 0 1 775 175.007l-12.504-12.503A12.504 12.504 0 0 0 775 175.007" fill="#0e4103"/><path d="M775 162.504a12.504 12.504 0 0 1 12.504 12.503L775 162.504a12.504 12.504 0 0 0 12.504 12.503" fill="#1b3624"/><path d="M762.496 175A12.504 12.504 0 0 1 775 187.504L762.496 175A12.504 12.504 0 0 0 775 187.504" fill="#1f9b00"/><path fill="#1A202C" d="M862.5 162.5h25v25h-25z"/><path d="M862.504 187.504A12.504 12.504 0 0 1 875.007 175l-12.503 12.504A12.504 12.504 0 0 0 875.007 175" fill="#0e3f04"/><path fill="#1A202C" d="M912.5 162.5h25v25h-25z"/><path d="M912.504 162.504a12.504 12.504 0 0 1 12.503 12.503l-12.503-12.503a12.504 12.504 0 0 0 12.503 12.503" fill="#123512"/><path d="M912.504 175a12.504 12.504 0 0 1 12.503 12.504L912.504 175a12.504 12.504 0 0 0 12.503 12.504" fill="#1e770d"/><path d="M925 175a12.504 12.504 0 0 1 12.504 12.504L925 175a12.504 12.504 0 0 0 12.504 12.504" fill="#0d4201"/><path fill="#1A202C" d="M112.5 212.5h25v25h-25zm50 0h25v25h-25z"/><path d="M362.504 237.504a25 25 0 0 1 25-25l-25 25a25 25 0 0 0 25-25" fill="#123610"/><path fill="#1A202C" d="M462.5 212.5h25v25h-25z"/><path d="M562.504 212.504a25 25 0 0 1 25 25l-25-25a25 25 0 0 0 25 25" fill="#0d4201"/><path d="M612.504 237.504a25 25 0 0 1 25-25l-25 25a25 25 0 0 0 25-25" fill="#192328"/><path fill="#1A202C" d="M662.5 212.5h25v25h-25z"/><path d="M662.504 212.504a12.504 12.504 0 0 1 12.503 12.503l-12.503-12.503a12.504 12.504 0 0 0 12.503 12.503" fill="#133413"/><path fill="#1A202C" d="M112.5 262.5h25v25h-25zm200 0h25v25h-25z"/><path d="M312.504 275a12.504 12.504 0 0 1 12.503 12.504L312.504 275a12.504 12.504 0 0 0 12.503 12.504" fill="#19222a"/><path fill="#1A202C" d="M462.5 262.5h25v25h-25z"/><path d="M462.504 275a12.504 12.504 0 0 1 12.503 12.504L462.504 275a12.504 12.504 0 0 0 12.503 12.504" fill="#1b3d22"/><path fill="#1A202C" d="M712.5 262.5h25v25h-25z"/><path d="M712.504 262.504a12.504 12.504 0 0 1 12.503 12.503l-12.503-12.503a12.504 12.504 0 0 0 12.503 12.503" fill="#1c4e1c"/><path d="M725 275.007a12.504 12.504 0 0 1 12.504-12.503L725 275.007a12.504 12.504 0 0 0 12.504-12.503" fill="#1f9502"/><path d="M712.504 287.504A12.504 12.504 0 0 1 725.007 275l-12.503 12.504A12.504 12.504 0 0 0 725.007 275" fill="#162a20"/><path fill="#1A202C" d="M862.5 262.5h25v25h-25z"/><path d="M12.504 337.504a25 25 0 0 1 25-25l-25 25a25 25 0 0 0 25-25" fill="#123610"/><path fill="#1A202C" d="M262.5 312.5h25v25h-25z"/><path d="M262.504 325.007a12.504 12.504 0 0 1 12.503-12.503l-12.503 12.503a12.504 12.504 0 0 0 12.503-12.503" fill="#1b3225"/><path d="M275 312.504a12.504 12.504 0 0 1 12.504 12.503L275 312.504a12.504 12.504 0 0 0 12.504 12.503" fill="#152d1c"/><path fill="#1A202C" d="M312.5 312.5h25v25h-25z"/><path d="M362.504 312.504a25 25 0 0 1 25 25l-25-25a25 25 0 0 0 25 25" fill="#1b3026"/><path fill="#1A202C" d="M12.5 362.5h25v25h-25z"/><path d="M25 375.007a12.504 12.504 0 0 1 12.504-12.503L25 375.007a12.504 12.504 0 0 0 12.504-12.503" fill="#1e8708"/><path fill="#1A202C" d="M62.5 362.5h25v25h-25z"/><path d="M412.504 362.504a25 25 0 0 1 25 25l-25-25a25 25 0 0 0 25 25" fill="#11370f"/><path fill="#1A202C" d="M462.5 362.5h25v25h-25z"/><path d="M475 362.504a12.504 12.504 0 0 1 12.504 12.503L475 362.504a12.504 12.504 0 0 0 12.504 12.503" fill="#1c511b"/><path d="M462.504 387.504A12.504 12.504 0 0 1 475.007 375l-12.503 12.504A12.504 12.504 0 0 0 475.007 375" fill="#133216"/><path fill="#1A202C" d="M512.5 362.5h25v25h-25z"/><path d="M562.504 387.504a25 25 0 0 1 25-25l-25 25a25 25 0 0 0 25-25" fill="#162b1f"/><path fill="#1A202C" d="M612.5 362.5h25v25h-25z"/><path d="M612.504 375a12.504 12.504 0 0 1 12.503 12.504L612.504 375a12.504 12.504 0 0 0 12.503 12.504" fill="#152d1c"/><path fill="#1A202C" d="M662.5 362.5h25v25h-25zm50 0h25v25h-25z"/><path d="M812.504 387.504a25 25 0 0 1 25-25l-25 25a25 25 0 0 0 25-25" fill="#182625"/><path fill="#1A202C" d="M912.5 362.5h25v25h-25z"/><path d="M925 375.007a12.504 12.504 0 0 1 12.504-12.503L925 375.007a12.504 12.504 0 0 0 12.504-12.503" fill="#1e8408"/><path d="M912.504 387.504A12.504 12.504 0 0 1 925.007 375l-12.503 12.504A12.504 12.504 0 0 0 925.007 375" fill="#192229"/><path d="M925 387.504A12.504 12.504 0 0 1 937.504 375L925 387.504A12.504 12.504 0 0 0 937.504 375" fill="#1b3524"/><path d="M12.504 412.504a25 25 0 0 1 25 25l-25-25a25 25 0 0 0 25 25" fill="#1c491e"/><path fill="#1A202C" d="M112.5 412.5h25v25h-25z"/><path d="M112.504 412.504a12.504 12.504 0 0 1 12.503 12.503l-12.503-12.503a12.504 12.504 0 0 0 12.503 12.503" fill="#11390c"/><path fill="#1A202C" d="M312.5 412.5h25v25h-25z"/><path d="M325 412.504a12.504 12.504 0 0 1 12.504 12.503L325 412.504a12.504 12.504 0 0 0 12.504 12.503" fill="#103c09"/><path d="M412.504 437.504a25 25 0 0 1 25-25l-25 25a25 25 0 0 0 25-25" fill="#1b3226"/><path fill="#1A202C" d="M462.5 412.5h25v25h-25z"/><path d="M462.504 425.007a12.504 12.504 0 0 1 12.503-12.503l-12.503 12.503a12.504 12.504 0 0 0 12.503-12.503" fill="#103c09"/><path d="M475 412.504a12.504 12.504 0 0 1 12.504 12.503L475 412.504a12.504 12.504 0 0 0 12.504 12.503" fill="#11370f"/><path d="M462.504 437.504A12.504 12.504 0 0 1 475.007 425l-12.503 12.504A12.504 12.504 0 0 0 475.007 425" fill="#1c5d16"/><path fill="#1A202C" d="M712.5 412.5h25v25h-25zm-700 50h25v25h-25z"/><path d="M25 475.007a12.504 12.504 0 0 1 12.504-12.503L25 475.007a12.504 12.504 0 0 0 12.504-12.503" fill="#172921"/><path d="M12.504 475a12.504 12.504 0 0 1 12.503 12.504L12.504 475a12.504 12.504 0 0 0 12.503 12.504" fill="#182525"/><path d="M112.504 487.504a25 25 0 0 1 25-25l-25 25a25 25 0 0 0 25-25" fill="#0e4102"/><path fill="#1A202C" d="M312.5 462.5h25v25h-25z"/><path d="M312.504 475a12.504 12.504 0 0 1 12.503 12.504L312.504 475a12.504 12.504 0 0 0 12.503 12.504" fill="#1e810a"/><path d="M325 475a12.504 12.504 0 0 1 12.504 12.504L325 475a12.504 12.504 0 0 0 12.504 12.504" fill="#1d740e"/><path d="M412.504 487.504a25 25 0 0 1 25-25l-25 25a25 25 0 0 0 25-25" fill="#1a212c"/><path d="M612.504 487.504a25 25 0 0 1 25-25l-25 25a25 25 0 0 0 25-25" fill="#0f3d08"/><path d="M662.504 462.504a25 25 0 0 1 25 25l-25-25a25 25 0 0 0 25 25" fill="#1a212b"/><path d="M712.504 487.504a25 25 0 0 1 25-25l-25 25a25 25 0 0 0 25-25" fill="#1e8f05"/><path d="M812.504 462.504a25 25 0 0 1 25 25l-25-25a25 25 0 0 0 25 25" fill="#133314"/><path fill="#1A202C" d="M912.5 462.5h25v25h-25z"/><path d="M912.504 475.007a12.504 12.504 0 0 1 12.503-12.503l-12.503 12.503a12.504 12.504 0 0 0 12.503-12.503" fill="#0e4003"/><path d="M925 475.007a12.504 12.504 0 0 1 12.504-12.503L925 475.007a12.504 12.504 0 0 0 12.504-12.503" fill="#143116"/><path d="M962.504 487.504a25 25 0 0 1 25-25l-25 25a25 25 0 0 0 25-25" fill="#152f1a"/></svg>
