<?xml version="1.0" standalone="no"?><svg xmlns:xlink="http://www.w3.org/1999/xlink" xmlns="http://www.w3.org/2000/svg" viewBox="0 0 1000 500" preserveAspectRatio="xMaxYMax slice"><g transform="scale(0.7052186177715092)"><rect x="0" y="0" width="1418" height="709" fill="#1A202C"/><path d="M 230.43 53.18000000000001 A 35.45 35.45 0 0 1  265.88 17.73 L 230.43 53.18000000000001 A 35.45 35.45 0 0 0 265.88 17.73" fill="#1d6514"/><rect x="301.32500000000005" y="17.725" width="35.45" height="35.45" fill="#1A202C"/><path d="M 319.05 53.18000000000001 A 17.73 17.73 0 0 1  336.78000000000003 35.45 L 319.05 53.18000000000001 A 17.73 17.73 0 0 0 336.78000000000003 35.45" fill="#1d6713"/><rect x="372.225" y="17.725" width="35.45" height="35.45" fill="#1A202C"/><path d="M 389.95 35.46 A 17.73 17.73 0 0 1  407.68 17.73 L 389.95 35.46 A 17.73 17.73 0 0 0 407.68 17.73" fill="#1b3824"/><path d="M 389.95 35.45 A 17.73 17.73 0 0 1  407.68 53.18000000000001 L 389.95 35.45 A 17.73 17.73 0 0 0 407.68 53.18000000000001" fill="#0f3d07"/><rect x="1152.125" y="17.725" width="35.45" height="35.45" fill="#1A202C"/><path d="M 1152.13 17.73 A 17.73 17.73 0 0 1  1169.8600000000001 35.46 L 1152.13 17.73 A 17.73 17.73 0 0 0 1169.8600000000001 35.46" fill="#1d6314"/><path d="M 1169.85 53.18000000000001 A 17.73 17.73 0 0 1  1187.58 35.45 L 1169.85 53.18000000000001 A 17.73 17.73 0 0 0 1187.58 35.45" fill="#152d1c"/><rect x="1223.025" y="17.725" width="35.45" height="35.45" fill="#1A202C"/><path d="M 1223.03 35.46 A 17.73 17.73 0 0 1  1240.76 17.73 L 1223.03 35.46 A 17.73 17.73 0 0 0 1240.76 17.73" fill="#172723"/><path d="M 1364.83 53.18000000000001 A 35.45 35.45 0 0 1  1400.28 17.73 L 1364.83 53.18000000000001 A 35.45 35.45 0 0 0 1400.28 17.73" fill="#1e8b06"/><rect x="88.625" y="88.625" width="35.45" height="35.45" fill="#1A202C"/><path d="M 88.63 124.08 A 17.73 17.73 0 0 1  106.36 106.35 L 88.63 124.08 A 17.73 17.73 0 0 0 106.36 106.35" fill="#1d740e"/><path d="M 106.35 124.08 A 17.73 17.73 0 0 1  124.08 106.35 L 106.35 124.08 A 17.73 17.73 0 0 0 124.08 106.35" fill="#162c1d"/><rect x="301.32500000000005" y="88.625" width="35.45" height="35.45" fill="#1A202C"/><path d="M 319.05 88.63 A 17.73 17.73 0 0 1  336.78000000000003 106.36 L 319.05 88.63 A 17.73 17.73 0 0 0 336.78000000000003 106.36" fill="#1d720f"/><path d="M 514.03 88.63 A 35.45 35.45 0 0 1  549.48 124.08 L 514.03 88.63 A 35.45 35.45 0 0 0 549.48 124.08" fill="#0f3f05"/><rect x="655.825" y="88.625" width="35.45" height="35.45" fill="#1A202C"/><path d="M 673.55 88.63 A 17.73 17.73 0 0 1  691.28 106.36 L 673.55 88.63 A 17.73 17.73 0 0 0 691.28 106.36" fill="#143017"/><path d="M 1081.22 88.63 A 35.45 35.45 0 0 1  1116.67 124.08 L 1081.22 88.63 A 35.45 35.45 0 0 0 1116.67 124.08" fill="#11380d"/><rect x="1293.925" y="88.625" width="35.45" height="35.45" fill="#1A202C"/><path d="M 1293.93 106.36 A 17.73 17.73 0 0 1  1311.66 88.63 L 1293.93 106.36 A 17.73 17.73 0 0 0 1311.66 88.63" fill="#192328"/><path d="M 1293.93 124.08 A 17.73 17.73 0 0 1  1311.66 106.35 L 1293.93 124.08 A 17.73 17.73 0 0 0 1311.66 106.35" fill="#103c08"/><path d="M 17.73 159.53 A 35.45 35.45 0 0 1  53.18000000000001 194.98000000000002 L 17.73 159.53 A 35.45 35.45 0 0 0 53.18000000000001 194.98000000000002" fill="#1c5a17"/><path d="M 88.63 194.98000000000002 A 35.45 35.45 0 0 1  124.08 159.53 L 88.63 194.98000000000002 A 35.45 35.45 0 0 0 124.08 159.53" fill="#1c501b"/><rect x="372.225" y="159.525" width="35.45" height="35.45" fill="#1A202C"/><path d="M 389.95 159.53 A 17.73 17.73 0 0 1  407.68 177.26 L 389.95 159.53 A 17.73 17.73 0 0 0 407.68 177.26" fill="#162a1f"/><rect x="797.6250000000001" y="159.525" width="35.45" height="35.45" fill="#1A202C"/><path d="M 797.63 177.26 A 17.73 17.73 0 0 1  815.36 159.53 L 797.63 177.26 A 17.73 17.73 0 0 0 815.36 159.53" fill="#11390d"/><path d="M 797.63 177.25 A 17.73 17.73 0 0 1  815.36 194.98 L 797.63 177.25 A 17.73 17.73 0 0 0 815.36 194.98" fill="#1a202c"/><path d="M 815.35 194.98 A 17.73 17.73 0 0 1  833.08 177.25 L 815.35 194.98 A 17.73 17.73 0 0 0 833.08 177.25" fill="#0d4201"/><path d="M 1223.03 159.53 A 35.45 35.45 0 0 1  1258.48 194.98000000000002 L 1223.03 159.53 A 35.45 35.45 0 0 0 1258.48 194.98000000000002" fill="#162b1e"/><rect x="1364.825" y="159.525" width="35.45" height="35.45" fill="#1A202C"/><path d="M 1382.55 177.25 A 17.73 17.73 0 0 1  1400.28 194.98 L 1382.55 177.25 A 17.73 17.73 0 0 0 1400.28 194.98" fill="#152d1c"/><rect x="17.725" y="230.425" width="35.45" height="35.45" fill="#1A202C"/><path d="M 35.45 248.15 A 17.73 17.73 0 0 1  53.18000000000001 265.88 L 35.45 248.15 A 17.73 17.73 0 0 0 53.18000000000001 265.88" fill="#152e1a"/><rect x="88.625" y="230.425" width="35.45" height="35.45" fill="#1A202C"/><path d="M 106.35 248.16 A 17.73 17.73 0 0 1  124.08 230.43 L 106.35 248.16 A 17.73 17.73 0 0 0 124.08 230.43" fill="#0e3f04"/><path d="M 159.53 230.43 A 35.45 35.45 0 0 1  194.98000000000002 265.88 L 159.53 230.43 A 35.45 35.45 0 0 0 194.98000000000002 265.88" fill="#11390d"/><path d="M 443.13 265.88 A 35.45 35.45 0 0 1  478.58 230.43 L 443.13 265.88 A 35.45 35.45 0 0 0 478.58 230.43" fill="#143018"/><path d="M 868.53 230.43 A 35.45 35.45 0 0 1  903.98 265.88 L 868.53 230.43 A 35.45 35.45 0 0 0 903.98 265.88" fill="#182624"/><rect x="1010.3250000000002" y="230.425" width="35.45" height="35.45" fill="#1A202C"/><path d="M 1028.05 248.16 A 17.73 17.73 0 0 1  1045.78 230.43 L 1028.05 248.16 A 17.73 17.73 0 0 0 1045.78 230.43" fill="#0f3f05"/><path d="M 1010.33 265.88 A 17.73 17.73 0 0 1  1028.06 248.15 L 1010.33 265.88 A 17.73 17.73 0 0 0 1028.06 248.15" fill="#1b431f"/><rect x="1081.225" y="230.425" width="35.45" height="35.45" fill="#1A202C"/><path d="M 1081.22 230.43 A 17.73 17.73 0 0 1  1098.95 248.16 L 1081.22 230.43 A 17.73 17.73 0 0 0 1098.95 248.16" fill="#0e4103"/><path d="M 1098.95 230.43 A 17.73 17.73 0 0 1  1116.68 248.16 L 1098.95 230.43 A 17.73 17.73 0 0 0 1116.68 248.16" fill="#1b3624"/><path d="M 1081.22 248.15 A 17.73 17.73 0 0 1  1098.95 265.88 L 1081.22 248.15 A 17.73 17.73 0 0 0 1098.95 265.88" fill="#1f9b00"/><rect x="1223.025" y="230.425" width="35.45" height="35.45" fill="#1A202C"/><path d="M 1223.03 265.88 A 17.73 17.73 0 0 1  1240.76 248.15 L 1223.03 265.88 A 17.73 17.73 0 0 0 1240.76 248.15" fill="#0e3f04"/><rect x="1293.925" y="230.425" width="35.45" height="35.45" fill="#1A202C"/><path d="M 1293.93 230.43 A 17.73 17.73 0 0 1  1311.66 248.16 L 1293.93 230.43 A 17.73 17.73 0 0 0 1311.66 248.16" fill="#123512"/><path d="M 1293.93 248.15 A 17.73 17.73 0 0 1  1311.66 265.88 L 1293.93 248.15 A 17.73 17.73 0 0 0 1311.66 265.88" fill="#1e770d"/><path d="M 1311.65 248.15 A 17.73 17.73 0 0 1  1329.38 265.88 L 1311.65 248.15 A 17.73 17.73 0 0 0 1329.38 265.88" fill="#0d4201"/><rect x="159.525" y="301.32500000000005" width="35.45" height="35.45" fill="#1A202C"/><rect x="230.425" y="301.32500000000005" width="35.45" height="35.45" fill="#1A202C"/><path d="M 514.03 336.78 A 35.45 35.45 0 0 1  549.48 301.33 L 514.03 336.78 A 35.45 35.45 0 0 0 549.48 301.33" fill="#123610"/><rect x="655.825" y="301.32500000000005" width="35.45" height="35.45" fill="#1A202C"/><path d="M 797.63 301.33 A 35.45 35.45 0 0 1  833.08 336.78 L 797.63 301.33 A 35.45 35.45 0 0 0 833.08 336.78" fill="#0d4201"/><path d="M 868.53 336.78 A 35.45 35.45 0 0 1  903.98 301.33 L 868.53 336.78 A 35.45 35.45 0 0 0 903.98 301.33" fill="#192328"/><rect x="939.4250000000001" y="301.32500000000005" width="35.45" height="35.45" fill="#1A202C"/><path d="M 939.43 301.33 A 17.73 17.73 0 0 1  957.16 319.06 L 939.43 301.33 A 17.73 17.73 0 0 0 957.16 319.06" fill="#133413"/><rect x="159.525" y="372.225" width="35.45" height="35.45" fill="#1A202C"/><rect x="443.12500000000006" y="372.225" width="35.45" height="35.45" fill="#1A202C"/><path d="M 460.85 389.96000000000004 A 17.73 17.73 0 0 1  478.58000000000004 372.23 L 460.85 389.96000000000004 A 17.73 17.73 0 0 0 478.58000000000004 372.23" fill="#1f9602"/><path d="M 443.13 389.95 A 17.73 17.73 0 0 1  460.86 407.68 L 443.13 389.95 A 17.73 17.73 0 0 0 460.86 407.68" fill="#19222a"/><rect x="655.825" y="372.225" width="35.45" height="35.45" fill="#1A202C"/><path d="M 655.83 389.95 A 17.73 17.73 0 0 1  673.5600000000001 407.68 L 655.83 389.95 A 17.73 17.73 0 0 0 673.5600000000001 407.68" fill="#1b3d22"/><rect x="1010.3250000000002" y="372.225" width="35.45" height="35.45" fill="#1A202C"/><path d="M 1010.33 372.23 A 17.73 17.73 0 0 1  1028.06 389.96000000000004 L 1010.33 372.23 A 17.73 17.73 0 0 0 1028.06 389.96000000000004" fill="#1c4e1c"/><path d="M 1028.05 389.96000000000004 A 17.73 17.73 0 0 1  1045.78 372.23 L 1028.05 389.96000000000004 A 17.73 17.73 0 0 0 1045.78 372.23" fill="#1f9502"/><path d="M 1010.33 407.68 A 17.73 17.73 0 0 1  1028.06 389.95 L 1010.33 407.68 A 17.73 17.73 0 0 0 1028.06 389.95" fill="#162a20"/><rect x="1223.025" y="372.225" width="35.45" height="35.45" fill="#1A202C"/><path d="M 17.73 478.58 A 35.45 35.45 0 0 1  53.18000000000001 443.13 L 17.73 478.58 A 35.45 35.45 0 0 0 53.18000000000001 443.13" fill="#123610"/><rect x="372.225" y="443.12500000000006" width="35.45" height="35.45" fill="#1A202C"/><path d="M 372.23 460.86 A 17.73 17.73 0 0 1  389.96000000000004 443.13 L 372.23 460.86 A 17.73 17.73 0 0 0 389.96000000000004 443.13" fill="#1b3225"/><path d="M 389.95 443.13 A 17.73 17.73 0 0 1  407.68 460.86 L 389.95 443.13 A 17.73 17.73 0 0 0 407.68 460.86" fill="#152d1c"/><rect x="443.12500000000006" y="443.12500000000006" width="35.45" height="35.45" fill="#1A202C"/><path d="M 514.03 443.13 A 35.45 35.45 0 0 1  549.48 478.58 L 514.03 443.13 A 35.45 35.45 0 0 0 549.48 478.58" fill="#1b3026"/><rect x="17.725" y="514.0250000000001" width="35.45" height="35.45" fill="#1A202C"/><path d="M 35.45 531.76 A 17.73 17.73 0 0 1  53.18000000000001 514.03 L 35.45 531.76 A 17.73 17.73 0 0 0 53.18000000000001 514.03" fill="#1e8708"/><rect x="88.625" y="514.0250000000001" width="35.45" height="35.45" fill="#1A202C"/><path d="M 584.93 514.03 A 35.45 35.45 0 0 1  620.38 549.48 L 584.93 514.03 A 35.45 35.45 0 0 0 620.38 549.48" fill="#11370f"/><rect x="655.825" y="514.0250000000001" width="35.45" height="35.45" fill="#1A202C"/><path d="M 673.55 514.03 A 17.73 17.73 0 0 1  691.28 531.76 L 673.55 514.03 A 17.73 17.73 0 0 0 691.28 531.76" fill="#1c511b"/><path d="M 655.83 549.48 A 17.73 17.73 0 0 1  673.5600000000001 531.75 L 655.83 549.48 A 17.73 17.73 0 0 0 673.5600000000001 531.75" fill="#133216"/><rect x="726.725" y="514.0250000000001" width="35.45" height="35.45" fill="#1A202C"/><path d="M 797.63 549.48 A 35.45 35.45 0 0 1  833.08 514.03 L 797.63 549.48 A 35.45 35.45 0 0 0 833.08 514.03" fill="#162b1f"/><rect x="868.5250000000001" y="514.0250000000001" width="35.45" height="35.45" fill="#1A202C"/><path d="M 868.53 531.75 A 17.73 17.73 0 0 1  886.26 549.48 L 868.53 531.75 A 17.73 17.73 0 0 0 886.26 549.48" fill="#152d1c"/><rect x="939.4250000000001" y="514.0250000000001" width="35.45" height="35.45" fill="#1A202C"/><rect x="1010.3250000000002" y="514.0250000000001" width="35.45" height="35.45" fill="#1A202C"/><path d="M 1152.13 549.48 A 35.45 35.45 0 0 1  1187.5800000000002 514.03 L 1152.13 549.48 A 35.45 35.45 0 0 0 1187.5800000000002 514.03" fill="#182625"/><rect x="1293.925" y="514.0250000000001" width="35.45" height="35.45" fill="#1A202C"/><path d="M 1311.65 531.76 A 17.73 17.73 0 0 1  1329.38 514.03 L 1311.65 531.76 A 17.73 17.73 0 0 0 1329.38 514.03" fill="#1e8408"/><path d="M 1293.93 549.48 A 17.73 17.73 0 0 1  1311.66 531.75 L 1293.93 549.48 A 17.73 17.73 0 0 0 1311.66 531.75" fill="#192229"/><path d="M 1311.65 549.48 A 17.73 17.73 0 0 1  1329.38 531.75 L 1311.65 549.48 A 17.73 17.73 0 0 0 1329.38 531.75" fill="#1b3524"/><path d="M 17.73 584.93 A 35.45 35.45 0 0 1  53.18000000000001 620.38 L 17.73 584.93 A 35.45 35.45 0 0 0 53.18000000000001 620.38" fill="#1c491e"/><rect x="159.525" y="584.9250000000001" width="35.45" height="35.45" fill="#1A202C"/><path d="M 159.53 584.93 A 17.73 17.73 0 0 1  177.26 602.66 L 159.53 584.93 A 17.73 17.73 0 0 0 177.26 602.66" fill="#11390c"/><rect x="443.12500000000006" y="584.9250000000001" width="35.45" height="35.45" fill="#1A202C"/><path d="M 460.85 584.93 A 17.73 17.73 0 0 1  478.58000000000004 602.66 L 460.85 584.93 A 17.73 17.73 0 0 0 478.58000000000004 602.66" fill="#103c09"/><path d="M 584.93 620.38 A 35.45 35.45 0 0 1  620.38 584.93 L 584.93 620.38 A 35.45 35.45 0 0 0 620.38 584.93" fill="#1b3226"/><rect x="655.825" y="584.9250000000001" width="35.45" height="35.45" fill="#1A202C"/><path d="M 655.83 602.66 A 17.73 17.73 0 0 1  673.5600000000001 584.93 L 655.83 602.66 A 17.73 17.73 0 0 0 673.5600000000001 584.93" fill="#103c09"/><path d="M 673.55 584.93 A 17.73 17.73 0 0 1  691.28 602.66 L 673.55 584.93 A 17.73 17.73 0 0 0 691.28 602.66" fill="#11370f"/><path d="M 655.83 620.38 A 17.73 17.73 0 0 1  673.5600000000001 602.65 L 655.83 620.38 A 17.73 17.73 0 0 0 673.5600000000001 602.65" fill="#1c5d16"/><rect x="1010.3250000000002" y="584.9250000000001" width="35.45" height="35.45" fill="#1A202C"/><rect x="17.725" y="655.825" width="35.45" height="35.45" fill="#1A202C"/><path d="M 35.45 673.5600000000001 A 17.73 17.73 0 0 1  53.18000000000001 655.83 L 35.45 673.5600000000001 A 17.73 17.73 0 0 0 53.18000000000001 655.83" fill="#172921"/><path d="M 17.73 673.55 A 17.73 17.73 0 0 1  35.46 691.28 L 17.73 673.55 A 17.73 17.73 0 0 0 35.46 691.28" fill="#182525"/><path d="M 159.53 691.2800000000001 A 35.45 35.45 0 0 1  194.98000000000002 655.83 L 159.53 691.2800000000001 A 35.45 35.45 0 0 0 194.98000000000002 655.83" fill="#0e4102"/><rect x="443.12500000000006" y="655.825" width="35.45" height="35.45" fill="#1A202C"/><path d="M 443.13 673.55 A 17.73 17.73 0 0 1  460.86 691.28 L 443.13 673.55 A 17.73 17.73 0 0 0 460.86 691.28" fill="#1e810a"/><path d="M 460.85 673.55 A 17.73 17.73 0 0 1  478.58000000000004 691.28 L 460.85 673.55 A 17.73 17.73 0 0 0 478.58000000000004 691.28" fill="#1d740e"/><path d="M 584.93 691.2800000000001 A 35.45 35.45 0 0 1  620.38 655.83 L 584.93 691.2800000000001 A 35.45 35.45 0 0 0 620.38 655.83" fill="#1a212c"/><path d="M 868.53 691.2800000000001 A 35.45 35.45 0 0 1  903.98 655.83 L 868.53 691.2800000000001 A 35.45 35.45 0 0 0 903.98 655.83" fill="#0f3d08"/><path d="M 939.43 655.83 A 35.45 35.45 0 0 1  974.88 691.2800000000001 L 939.43 655.83 A 35.45 35.45 0 0 0 974.88 691.2800000000001" fill="#1a212b"/><path d="M 1010.33 691.2800000000001 A 35.45 35.45 0 0 1  1045.78 655.83 L 1010.33 691.2800000000001 A 35.45 35.45 0 0 0 1045.78 655.83" fill="#1e8f05"/><path d="M 1152.13 655.83 A 35.45 35.45 0 0 1  1187.5800000000002 691.2800000000001 L 1152.13 655.83 A 35.45 35.45 0 0 0 1187.5800000000002 691.2800000000001" fill="#133314"/><rect x="1293.925" y="655.825" width="35.45" height="35.45" fill="#1A202C"/><path d="M 1293.93 673.5600000000001 A 17.73 17.73 0 0 1  1311.66 655.83 L 1293.93 673.5600000000001 A 17.73 17.73 0 0 0 1311.66 655.83" fill="#0e4003"/><path d="M 1311.65 673.5600000000001 A 17.73 17.73 0 0 1  1329.38 655.83 L 1311.65 673.5600000000001 A 17.73 17.73 0 0 0 1329.38 655.83" fill="#143116"/><path d="M 1364.83 691.2800000000001 A 35.45 35.45 0 0 1  1400.28 655.83 L 1364.83 691.2800000000001 A 35.45 35.45 0 0 0 1400.28 655.83" fill="#152f1a"/></g></svg>