<svg xmlns="http://www.w3.org/2000/svg" preserveAspectRatio="xMaxYMax slice" viewBox="0 0 1000 500"><path fill="#fff" d="M0 0h1000v500H0z"/><path fill="#93ce85" d="M62.504 37.504a25 25 0 0 1 25-25l-25 25a25 25 0 0 0 25-25"/><path fill="#e3f0e0" d="M362.504 12.504a25 25 0 0 1 25 25l-25-25a25 25 0 0 0 25 25"/><path fill="#3faa25" d="M462.504 12.504a25 25 0 0 1 25 25l-25-25a25 25 0 0 0 25 25"/><path fill="#7ac367" d="M812.504 12.504a25 25 0 0 1 25 25l-25-25a25 25 0 0 0 25 25"/><path fill="#fff" d="M12.5 62.5h25v25h-25z"/><path fill="#a3d596" d="M12.504 75a12.504 12.504 0 0 1 12.503 12.504L12.504 75a12.504 12.504 0 0 0 12.503 12.504"/><path fill="#dcedd8" d="M25 87.504A12.504 12.504 0 0 1 37.504 75L25 87.504A12.504 12.504 0 0 0 37.504 75"/><path fill="#fff" d="M62.5 62.5h25v25h-25z"/><path fill="#fff" d="M62.504 75a12.504 12.504 0 0 1 12.503 12.504L62.504 75a12.504 12.504 0 0 0 12.503 12.504"/><path fill="#7cc46b" d="M112.504 62.504a25 25 0 0 1 25 25l-25-25a25 25 0 0 0 25 25"/><path fill="#6ebe5a" d="M162.504 87.504a25 25 0 0 1 25-25l-25 25a25 25 0 0 0 25-25"/><path fill="#a3d597" d="M912.504 87.504a25 25 0 0 1 25-25l-25 25a25 25 0 0 0 25-25"/><path fill="#c0e1b8" d="M162.504 137.504a25 25 0 0 1 25-25l-25 25a25 25 0 0 0 25-25"/><path fill="#fff" d="M212.5 112.5h25v25h-25z"/><path fill="#60b84a" d="M212.504 112.504a12.504 12.504 0 0 1 12.503 12.503l-12.503-12.503a12.504 12.504 0 0 0 12.503 12.503"/><path fill="#bef4b0" d="M262.504 112.504a25 25 0 0 1 25 25l-25-25a25 25 0 0 0 25 25"/><path fill="#fff" d="M312.5 112.5h25v25h-25z"/><path fill="#e7f8e2" d="M325 112.504a12.504 12.504 0 0 1 12.504 12.503L325 112.504a12.504 12.504 0 0 0 12.504 12.503"/><path fill="#f1f9f0" d="M325 137.504A12.504 12.504 0 0 1 337.504 125L325 137.504A12.504 12.504 0 0 0 337.504 125"/><path fill="#fff" d="M412.5 112.5h25v25h-25z"/><path fill="#3ca922" d="M412.504 125.007a12.504 12.504 0 0 1 12.503-12.503l-12.503 12.503a12.504 12.504 0 0 0 12.503-12.503"/><path fill="#d3e9cd" d="M512.504 137.504a25 25 0 0 1 25-25l-25 25a25 25 0 0 0 25-25"/><path fill="#fff" d="M662.5 112.5h25v25h-25z"/><path fill="#c4f5b8" d="M662.504 137.504A12.504 12.504 0 0 1 675.007 125l-12.503 12.504A12.504 12.504 0 0 0 675.007 125"/><path fill="#fff" d="M712.5 112.5h25v25h-25z"/><path fill="#e8f8e4" d="M712.504 112.504a12.504 12.504 0 0 1 12.503 12.503l-12.503-12.503a12.504 12.504 0 0 0 12.503 12.503"/><path fill="#eef5ec" d="M712.504 125a12.504 12.504 0 0 1 12.503 12.504L712.504 125a12.504 12.504 0 0 0 12.503 12.504"/><path fill="#dcedd8" d="M762.496 137.504a25 25 0 0 1 25-25l-25 25a25 25 0 0 0 25-25"/><path fill="#fff" d="M162.5 162.5h25v25h-25z"/><path fill="#edf9ea" d="M162.504 175a12.504 12.504 0 0 1 12.503 12.504L162.504 175a12.504 12.504 0 0 0 12.503 12.504"/><path fill="#fff" d="M312.5 162.5h25v25h-25z"/><path fill="#7bc368" d="M312.504 162.504a12.504 12.504 0 0 1 12.503 12.503l-12.503-12.503a12.504 12.504 0 0 0 12.503 12.503"/><path fill="#f9faf9" d="M312.504 187.504A12.504 12.504 0 0 1 325.007 175l-12.503 12.504A12.504 12.504 0 0 0 325.007 175"/><path fill="#dbf7d4" d="M325 175a12.504 12.504 0 0 1 12.504 12.504L325 175a12.504 12.504 0 0 0 12.504 12.504"/><path fill="#fff" d="M462.5 162.5h25v25h-25z"/><path fill="#e4f8df" d="M462.504 162.504a12.504 12.504 0 0 1 12.503 12.503l-12.503-12.503a12.504 12.504 0 0 0 12.503 12.503"/><path fill="#b2dba8" d="M912.504 187.504a25 25 0 0 1 25-25l-25 25a25 25 0 0 0 25-25"/><path fill="#3aa81f" d="M112.504 212.504a25 25 0 0 1 25 25l-25-25a25 25 0 0 0 25 25"/><path fill="#fff" d="M162.5 212.5h25v25h-25z"/><path fill="#e7f8e2" d="M162.504 212.504a12.504 12.504 0 0 1 12.503 12.503l-12.503-12.503a12.504 12.504 0 0 0 12.503 12.503"/><path fill="#eff9ed" d="M175 225a12.504 12.504 0 0 1 12.504 12.504L175 225a12.504 12.504 0 0 0 12.504 12.504"/><path fill="#fff" d="M562.5 212.5h25v25h-25z"/><path fill="#e0f7da" d="M575 212.504a12.504 12.504 0 0 1 12.504 12.503L575 212.504a12.504 12.504 0 0 0 12.504 12.503"/><path fill="#7ec56d" d="M575 237.504A12.504 12.504 0 0 1 587.504 225L575 237.504A12.504 12.504 0 0 0 587.504 225"/><path fill="#f2f9f0" d="M712.504 237.504a25 25 0 0 1 25-25l-25 25a25 25 0 0 0 25-25"/><path fill="#95ce86" d="M162.504 262.504a25 25 0 0 1 25 25l-25-25a25 25 0 0 0 25 25"/><path fill="#abf299" d="M412.504 287.504a25 25 0 0 1 25-25l-25 25a25 25 0 0 0 25-25"/><path fill="#d7f6cf" d="M462.504 262.504a25 25 0 0 1 25 25l-25-25a25 25 0 0 0 25 25"/><path fill="#67bb52" d="M512.504 262.504a25 25 0 0 1 25 25l-25-25a25 25 0 0 0 25 25"/><path fill="#acd8a0" d="M812.504 287.504a25 25 0 0 1 25-25l-25 25a25 25 0 0 0 25-25"/><path fill="#e9f8e5" d="M862.504 262.504a25 25 0 0 1 25 25l-25-25a25 25 0 0 0 25 25"/><path fill="#fff" d="M912.5 262.5h25v25h-25z"/><path fill="#bee0b5" d="M912.504 262.504a12.504 12.504 0 0 1 12.503 12.503l-12.503-12.503a12.504 12.504 0 0 0 12.503 12.503"/><path fill="#e2f8dd" d="M925 275.007a12.504 12.504 0 0 1 12.504-12.503L925 275.007a12.504 12.504 0 0 0 12.504-12.503"/><path fill="#dcf7d5" d="M925 275a12.504 12.504 0 0 1 12.504 12.504L925 275a12.504 12.504 0 0 0 12.504 12.504"/><path fill="#e2f8dc" d="M62.504 337.504a25 25 0 0 1 25-25l-25 25a25 25 0 0 0 25-25"/><path fill="#fff" d="M312.5 312.5h25v25h-25z"/><path fill="#57b440" d="M312.504 312.504a12.504 12.504 0 0 1 12.503 12.503l-12.503-12.503a12.504 12.504 0 0 0 12.503 12.503"/><path fill="#e4f8df" d="M325 337.504A12.504 12.504 0 0 1 337.504 325L325 337.504A12.504 12.504 0 0 0 337.504 325"/><path fill="#fff" d="M412.5 312.5h25v25h-25z"/><path fill="#b3dca9" d="M425 325.007a12.504 12.504 0 0 1 12.504-12.503L425 325.007a12.504 12.504 0 0 0 12.504-12.503"/><path fill="#f7f9f7" d="M412.504 325a12.504 12.504 0 0 1 12.503 12.504L412.504 325a12.504 12.504 0 0 0 12.503 12.504"/><path fill="#d5f6cd" d="M662.504 337.504a25 25 0 0 1 25-25l-25 25a25 25 0 0 0 25-25"/><path fill="#fff" d="M712.5 312.5h25v25h-25z"/><path fill="#66ba51" d="M712.504 312.504a12.504 12.504 0 0 1 12.503 12.503l-12.503-12.503a12.504 12.504 0 0 0 12.503 12.503"/><path fill="#f3f9f2" d="M725 325.007a12.504 12.504 0 0 1 12.504-12.503L725 325.007a12.504 12.504 0 0 0 12.504-12.503"/><path fill="#f0f9ee" d="M762.496 337.504a25 25 0 0 1 25-25l-25 25a25 25 0 0 0 25-25"/><path fill="#fff" d="M862.5 312.5h25v25h-25z"/><path fill="#30a314" d="M862.504 312.504a12.504 12.504 0 0 1 12.503 12.503l-12.503-12.503a12.504 12.504 0 0 0 12.503 12.503"/><path fill="#d1f6c7" d="M875 337.504A12.504 12.504 0 0 1 887.504 325L875 337.504A12.504 12.504 0 0 0 887.504 325"/><path fill="#ebf3e9" d="M962.504 337.504a25 25 0 0 1 25-25l-25 25a25 25 0 0 0 25-25"/><path fill="#e2f8dc" d="M112.504 362.504a25 25 0 0 1 25 25l-25-25a25 25 0 0 0 25 25"/><path fill="#fff" d="M162.5 362.5h25v25h-25z"/><path fill="#e9f8e5" d="M162.504 387.504A12.504 12.504 0 0 1 175.007 375l-12.503 12.504A12.504 12.504 0 0 0 175.007 375"/><path fill="#b1f3a1" d="M175 375a12.504 12.504 0 0 1 12.504 12.504L175 375a12.504 12.504 0 0 0 12.504 12.504"/><path fill="#b7f3a8" d="M212.504 387.504a25 25 0 0 1 25-25l-25 25a25 25 0 0 0 25-25"/><path fill="#fff" d="M612.5 362.5h25v25h-25z"/><path fill="#60b84a" d="M712.504 387.504a25 25 0 0 1 25-25l-25 25a25 25 0 0 0 25-25"/><path fill="#e7f8e3" d="M762.496 387.504a25 25 0 0 1 25-25l-25 25a25 25 0 0 0 25-25"/><path fill="#f4f9f3" d="M862.504 362.504a25 25 0 0 1 25 25l-25-25a25 25 0 0 0 25 25"/><path fill="#b2dba8" d="M312.504 437.504a25 25 0 0 1 25-25l-25 25a25 25 0 0 0 25-25"/><path fill="#fff" d="M362.5 412.5h25v25h-25z"/><path fill="#57b440" d="M362.504 425a12.504 12.504 0 0 1 12.503 12.504L362.504 425a12.504 12.504 0 0 0 12.503 12.504"/><path fill="#fff" d="M462.5 412.5h25v25h-25z"/><path fill="#e8f2e6" d="M462.504 437.504A12.504 12.504 0 0 1 475.007 425l-12.503 12.504A12.504 12.504 0 0 0 475.007 425"/><path fill="#fff" d="M512.5 412.5h25v25h-25z"/><path fill="#2ca20f" d="M525 412.504a12.504 12.504 0 0 1 12.504 12.503L525 412.504a12.504 12.504 0 0 0 12.504 12.503"/><path fill="#bbdfb3" d="M512.504 437.504A12.504 12.504 0 0 1 525.007 425l-12.503 12.504A12.504 12.504 0 0 0 525.007 425"/><path fill="#b1dba6" d="M525 425a12.504 12.504 0 0 1 12.504 12.504L525 425a12.504 12.504 0 0 0 12.504 12.504"/><path fill="#b0f3a0" d="M562.504 437.504a25 25 0 0 1 25-25l-25 25a25 25 0 0 0 25-25"/><path fill="#fff" d="M662.5 412.5h25v25h-25z"/><path fill="#30a313" d="M662.504 425.007a12.504 12.504 0 0 1 12.503-12.503l-12.503 12.503a12.504 12.504 0 0 0 12.503-12.503"/><path fill="#f7faf6" d="M675 425.007a12.504 12.504 0 0 1 12.504-12.503L675 425.007a12.504 12.504 0 0 0 12.504-12.503"/><path fill="#eff9ec" d="M675 425a12.504 12.504 0 0 1 12.504 12.504L675 425a12.504 12.504 0 0 0 12.504 12.504"/><path fill="#fff" d="M712.5 412.5h25v25h-25z"/><path fill="#e6f1e3" d="M725 412.504a12.504 12.504 0 0 1 12.504 12.503L725 412.504a12.504 12.504 0 0 0 12.504 12.503"/><path fill="#f3f9f2" d="M725 425a12.504 12.504 0 0 1 12.504 12.504L725 425a12.504 12.504 0 0 0 12.504 12.504"/><path fill="#f6f8f5" d="M762.496 437.504a25 25 0 0 1 25-25l-25 25a25 25 0 0 0 25-25"/><path fill="#fff" d="M812.5 412.5h25v25h-25z"/><path fill="#59b542" d="M812.504 425a12.504 12.504 0 0 1 12.503 12.504L812.504 425a12.504 12.504 0 0 0 12.503 12.504"/><path fill="#53b23c" d="M12.504 462.504a25 25 0 0 1 25 25l-25-25a25 25 0 0 0 25 25"/><path fill="#219d03" d="M412.504 487.504a25 25 0 0 1 25-25l-25 25a25 25 0 0 0 25-25"/><path fill="#fff" d="M562.5 462.5h25v25h-25z"/><path fill="#5ab543" d="M562.504 462.504a12.504 12.504 0 0 1 12.503 12.503l-12.503-12.503a12.504 12.504 0 0 0 12.503 12.503"/><path fill="#fff" d="M762.5 462.5h25v25h-25z"/><path fill="#c1e2b9" d="M775 462.504a12.504 12.504 0 0 1 12.504 12.503L775 462.504a12.504 12.504 0 0 0 12.504 12.503"/><path fill="#8bca7b" d="M762.496 475A12.504 12.504 0 0 1 775 487.504L762.496 475A12.504 12.504 0 0 0 775 487.504"/><path fill="#bfe1b7" d="M775 475a12.504 12.504 0 0 1 12.504 12.504L775 475a12.504 12.504 0 0 0 12.504 12.504"/></svg>